<svg id="Layer_1" data-name="Layer 1" xmlns="http://www.w3.org/2000/svg" viewBox="0 0 595.28 841.89" style="fill: rgb(0, 0, 0);">
  <title>File KhungVien</title>
  <g>
    <polygon points="19.76 819.38 18.83 819.38 18.83 819.63 18.83 825.47 26.49 825.47 26.49 820.53 21.62 820.53 21.62 823.22 23.82 823.22 23.82 822.67 22.44 822.67 22.44 821.01 25.67 821.01 25.67 824.82 19.76 824.82 19.76 819.38"></polygon>
    <path d="M15.16,819.38h-3.1v6.09h6.25v-6.09H15.16Zm1.73,4.7H13.48v-3.31h3.41Z"></path>
    <rect x="578.9" y="821.26" width="2.38" height="2.32"></rect>
    <polygon points="12.73 812.22 16.64 812.22 16.64 815.36 14.93 815.36 14.93 814.02 14.37 814.02 14.37 816.16 17.13 816.16 17.13 811.41 12.06 811.41 12.06 818.88 15.16 818.88 18.1 818.88 18.32 818.88 18.32 817.97 12.73 817.97 12.73 812.22"></polygon>
    <polygon points="26.49 17.65 21.62 17.65 21.62 20.34 23.82 20.34 23.82 19.79 22.44 19.79 22.44 18.13 25.67 18.13 25.67 21.93 19.76 21.93 19.76 16.5 18.83 16.5 18.83 22.59 26.49 22.59 26.49 17.65"></polygon>
    <rect x="14" y="18.38" width="2.38" height="2.32"></rect>
    <path d="M18.31,22.59v-6.1H12.06v6.1h6.25Zm-4.83-4.71h3.41V21.2H13.48Z"></path>
    <polygon points="17.64 29.74 13.85 29.74 13.85 26.6 15.44 26.6 15.44 27.94 16.12 27.94 16.12 25.79 13.24 25.79 13.24 30.55 18.32 30.55 18.32 23.09 15.16 23.09 12.06 23.09 12.06 23.99 17.64 23.99 17.64 29.74"></polygon>
    <rect x="14" y="821.26" width="2.38" height="2.32"></rect>
    <rect x="578.9" y="18.38" width="2.38" height="2.32"></rect>
    <path d="M576.45,23.09v-6.6h-7.67v4.94h4.89v-2.8h-2.2v.66h1.37v1.55h-3.23V17.15h5.91v5.94h-8.7v-6.6h-7.66v4.94H564v-2.8h-2.2v.66h1.38v1.55H560V17.15h5.9v5.94H557.2v-6.6h-7.66v4.94h4.88v-2.8h-2.2v.66h1.37v1.55h-3.22V17.15h5.9v5.94h-8.69v-6.6h-7.66v4.94h4.88v-2.8h-2.2v.66H544v1.55h-3.23V17.15h5.91v5.94H538v-6.6h-7.67v4.94h4.88v-2.8H533v.66h1.38v1.55h-3.23V17.15H537v5.94h-8.7v-6.6h-7.66v4.94h4.88v-2.8h-2.2v.66h1.38v1.55H521.5V17.15h5.9v5.94h-8.69v-6.6h-7.66v4.94h4.88v-2.8h-2.2v.66h1.37v1.55h-3.22V17.15h5.9v5.94h-8.69v-6.6h-7.67v4.94h4.89v-2.8h-2.2v.66h1.37v1.55h-3.23V17.15h5.91v5.94h-8.7v-6.6H491.8v4.94h4.88v-2.8h-2.2v.66h1.38v1.55h-3.23V17.15h5.9v5.94h-8.69v-6.6h-7.66v4.94h4.88v-2.8h-2.2v.66h1.37v1.55H483V17.15h5.9v5.94h-8.69v-6.6h-7.67v4.94h4.89v-2.8h-2.2v.66h1.37v1.55h-3.23V17.15h5.91v5.94h-8.7v-6.6h-7.66v4.94h4.88v-2.8h-2.2v.66H467v1.55h-3.23V17.15h5.9v5.94H461v-6.6h-7.66v4.94h4.88v-2.8H456v.66h1.37v1.55h-3.22V17.15H460v5.94h-8.69v-6.6h-7.66v4.94h4.88v-2.8h-2.2v.66h1.37v1.55h-3.22V17.15h5.9v5.94h-8.69v-6.6h-7.67v4.94H439v-2.8h-2.21v.66h1.38v1.55h-3.23V17.15h5.91v5.94h-8.7v-6.6h-7.66v4.94h4.88v-2.8h-2.2v.66h1.38v1.55h-3.23V17.15h5.9v5.94h-8.69v-6.6h-7.66v4.94h4.88v-2.8h-2.2v.66h1.37v1.55h-3.22V17.15h5.9v5.94h-8.69v-6.6h-7.67v4.94h4.89v-2.8h-2.2v.66h1.37v1.55H406V17.15h5.91v5.94h-8.7v-6.6h-7.66v4.94h4.88v-2.8h-2.2v.66h1.38v1.55H396.4V17.15h5.9v5.94h-8.69v-6.6H386v4.94h4.88v-2.8h-2.2v.66H390v1.55h-3.22V17.15h5.9v5.94H384v-6.6h-7.66v4.94h4.88v-2.8H379v.66h1.37v1.55h-3.23V17.15h5.91v5.94h-8.7v-6.6H366.7v4.94h4.88v-2.8h-2.2v.66h1.38v1.55h-3.23V17.15h5.91v5.94h-8.7v-6.6h-7.66v4.94H362v-2.8h-2.2v.66h1.37v1.55h-3.22V17.15h5.9v5.94h-8.69v-6.6h-7.66v4.94h4.88v-2.8h-2.2v.66h1.37v1.55h-3.22V17.15h5.9v5.94H345.5v-6.6h-7.67v4.94h4.89v-2.8h-2.21v.66h1.38v1.55h-3.23V17.15h5.91v5.94h-8.7v-6.6h-7.66v4.94h4.88v-2.8h-2.2v.66h1.38v1.55H329V17.15h5.9v5.94h-8.69v-6.6h-7.66v4.94h4.88v-2.8h-2.2v.66h1.37v1.55h-3.22V17.15h5.9v5.94h-8.69v-6.6H309v4.94h4.89v-2.8h-2.2v.66H313v1.55h-3.23V17.15h5.91v5.94H307v-6.6h-7.66v4.94h4.88v-2.8H302v.66h1.38v1.55h-3.23V17.15h5.9v5.94h-8.69v-6.6h-7.66v4.94h4.88v-2.8h-2.2v.66h1.37v1.55h-3.22V17.15h5.9v5.94h-8.69v-6.6H280.1v4.94H285v-2.8h-2.2v.66h1.37v1.55h-3.23V17.15h5.91v5.94h-8.69v-6.6h-7.67v4.94h4.88v-2.8h-2.2v.66h1.38v1.55H271.3V17.15h5.91v5.94h-8.7v-6.6h-7.66v4.94h4.88v-2.8h-2.2v.66h1.37v1.55h-3.22V17.15h5.9v5.94h-8.69v-6.6h-7.66v4.94h4.88v-2.8h-2.2v.66h1.37v1.55h-3.22V17.15H258v5.94h-8.69v-6.6H241.6v4.94h4.89v-2.8h-2.21v.66h1.38v1.55h-3.23V17.15h5.91v5.94h-8.7v-6.6H232v4.94h4.88v-2.8h-2.2v.66H236v1.55h-3.23V17.15h5.9v5.94H230v-6.6h-7.66v4.94h4.88v-2.8H225v.66h1.37v1.55h-3.22V17.15h5.9v5.94H220.4v-6.6h-7.67v4.94h4.89v-2.8h-2.2v.66h1.37v1.55h-3.23V17.15h5.91v5.94h-8.7v-6.6h-7.66v4.94H208v-2.8h-2.2v.66h1.38v1.55h-3.23V17.15h5.9v5.94h-8.69v-6.6h-7.66v4.94h4.88v-2.8h-2.2v.66h1.37v1.55h-3.22V17.15h5.9v5.94h-8.69v-6.6h-7.66v4.94h4.88v-2.8h-2.2v.66h1.37v1.55H184.7V17.15h5.9v5.94h-8.69v-6.6h-7.67v4.94h4.88v-2.8h-2.2v.66h1.38v1.55h-3.23V17.15H181v5.94h-8.7v-6.6h-7.66v4.94h4.88v-2.8h-2.2v.66h1.37v1.55h-3.22V17.15h5.9v5.94h-8.69v-6.6H155v4.94h4.88v-2.8h-2.2v.66h1.37v1.55h-3.22V17.15h5.9v5.94H153v-6.6h-7.67v4.94h4.89v-2.8h-2.2v.66h1.37v1.55H146.2V17.15h5.91v5.94h-8.7v-6.6h-7.66v4.94h4.88v-2.8h-2.2v.66h1.38v1.55h-3.23V17.15h5.9v5.94h-8.69v-6.6h-7.66v4.94H131v-2.8h-2.2v.66h1.37v1.55H127V17.15h5.9v5.94h-8.69v-6.6h-7.66v4.94h4.88v-2.8h-2.2v.66h1.37v1.55h-3.23V17.15h5.91v5.94h-8.7v-6.6h-7.66v4.94h4.88v-2.8h-2.2v.66h1.38v1.55h-3.23V17.15h5.9v5.94h-8.69v-6.6H97.26v4.94h4.88v-2.8h-2.2v.66h1.37v1.55H98.09V17.15H104v5.94H95.3v-6.6H87.64v4.94h4.88v-2.8h-2.2v.66h1.37v1.55H88.47V17.15h5.9v5.94H85.68v-6.6H78v4.94H82.9v-2.8H80.69v.66h1.38v1.55H78.84V17.15h5.91v5.94h-8.7v-6.6H68.39v4.94h4.88v-2.8h-2.2v.66h1.38v1.55H69.22V17.15h5.9v5.94H66.43v-6.6H58.77v4.94h4.88v-2.8h-2.2v.66h1.37v1.55H59.6V17.15h5.9v5.94H56.81v-6.6H49.14v4.94H54v-2.8h-2.2v.66H53.2v1.55H50V17.15h5.91v5.94h-8.7v-6.6H39.52v4.94H44.4v-2.8H42.2v.66h1.38v1.55H40.35V17.15h5.9v5.94H37.56v-6.6H29.9v4.94h4.88v-2.8h-2.2v.66H34v1.55H30.73V17.15h5.9v5.94H27.94v-6.6H20.28v4.94h4.88v-2.8H23v.66h1.37v1.55H21.1V17.15H27v5.94H18.83v8h-6.1V25.29h3.91v3.15H14.93V27.1h-.56v2.14h2.76V24.49H12.06V32h6.77v8.45h-6.1V34.66h3.91V37.8H14.93V36.47h-.56v2.14h2.76V33.86H12.06v7.46h6.77v8.46h-6.1V44h3.91v3.14H14.93V45.83h-.56V48h2.76V43.23H12.06v7.46h6.77v8.46h-6.1V53.4h3.91v3.14H14.93V55.2h-.56v2.14h2.76V52.6H12.06v7.46h6.77v8.46h-6.1V62.77h3.91v3.14H14.93V64.57h-.56v2.14h2.76V62H12.06v7.46h6.77v8.46h-6.1V72.13h3.91v3.15H14.93V73.94h-.56v2.14h2.76V71.33H12.06V78.8h6.77v8.45h-6.1V81.5h3.91v3.14H14.93V83.31h-.56v2.14h2.76V80.7H12.06v7.46h6.77v8.46h-6.1V90.87h3.91V94H14.93V92.68h-.56v2.14h2.76V90.07H12.06v7.46h6.77V106h-6.1v-5.75h3.91v3.14H14.93V102h-.56v2.14h2.76V99.44H12.06v7.46h6.77v8.46h-6.1v-5.75h3.91v3.14H14.93v-1.34h-.56v2.14h2.76v-4.74H12.06v7.46h6.77v8.46h-6.1V119h3.91v3.15H14.93v-1.34h-.56v2.14h2.76v-4.75H12.06v7.47h6.77v8.46h-6.1v-5.76h3.91v3.15H14.93v-1.34h-.56v2.14h2.76v-4.75H12.06V135h6.77v8.46h-6.1v-5.75h3.91v3.14H14.93v-1.33h-.56v2.14h2.76v-4.75H12.06v7.46h6.77v8.46h-6.1v-5.75h3.91v3.14H14.93v-1.34h-.56V151h2.76v-4.74H12.06v7.46h6.77v8.46h-6.1v-5.75h3.91v3.14H14.93v-1.34h-.56v2.14h2.76v-4.74H12.06v7.46h6.77v8.46h-6.1v-5.75h3.91V169H14.93v-1.34h-.56v2.14h2.76V165H12.06v7.47h6.77v8.46h-6.1v-5.76h3.91v3.15H14.93V177h-.56v2.14h2.76v-4.75H12.06v7.47h6.77v8.45h-6.1v-5.75h3.91v3.14H14.93v-1.33h-.56v2.14h2.76v-4.75H12.06v7.46h6.77v8.46h-6.1v-5.75h3.91v3.14H14.93v-1.33h-.56v2.14h2.76v-4.75H12.06v7.46h6.77V209h-6.1v-5.75h3.91v3.14H14.93v-1.34h-.56v2.14h2.76v-4.74H12.06V210h6.77v8.46h-6.1v-5.75h3.91v3.14H14.93v-1.34h-.56v2.14h2.76v-4.75H12.06v7.47h6.77v8.46h-6.1V222h3.91v3.15H14.93v-1.34h-.56V226h2.76v-4.75H12.06v7.47h6.77v8.46h-6.1v-5.76h3.91v3.14H14.93V233.2h-.56v2.14h2.76v-4.75H12.06v7.46h6.77v8.46h-6.1v-5.75h3.91v3.14H14.93v-1.33h-.56v2.14h2.76V240H12.06v7.46h6.77v8.46h-6.1v-5.75h3.91v3.14H14.93v-1.34h-.56v2.14h2.76v-4.74H12.06v7.46h6.77v8.46h-6.1V259.5h3.91v3.14H14.93V261.3h-.56v2.14h2.76V258.7H12.06v7.46h6.77v8.46h-6.1v-5.76h3.91V272H14.93v-1.34h-.56v2.14h2.76v-4.75H12.06v7.47h6.77V284h-6.1v-5.76h3.91v3.15H14.93V280h-.56v2.14h2.76v-4.75H12.06v7.46h6.77v8.46h-6.1V287.6h3.91v3.14H14.93v-1.33h-.56v2.14h2.76V286.8H12.06v7.46h6.77v8.46h-6.1V297h3.91v3.14H14.93v-1.34h-.56v2.15h2.76v-4.75H12.06v7.46h6.77v8.46h-6.1v-5.75h3.91v3.14H14.93v-1.34h-.56v2.14h2.76v-4.74H12.06V313h6.77v8.46h-6.1V315.7h3.91v3.15H14.93v-1.34h-.56v2.14h2.76V314.9H12.06v7.47h6.77v8.46h-6.1v-5.76h3.91v3.15H14.93v-1.34h-.56V329h2.76v-4.75H12.06v7.46h6.77v8.46h-6.1v-5.75h3.91v3.14H14.93v-1.33h-.56v2.14h2.76v-4.75H12.06v7.46h6.77v8.46h-6.1v-5.75h3.91V347H14.93v-1.33h-.56v2.14h2.76V343H12.06v7.46h6.77v8.46h-6.1v-5.75h3.91v3.14H14.93V355h-.56v2.14h2.76v-4.74H12.06v7.46h6.77v8.46h-6.1v-5.75h3.91v3.14H14.93v-1.34h-.56v2.14h2.76v-4.75H12.06v7.47h6.77v8.46h-6.1v-5.76h3.91v3.15H14.93v-1.34h-.56v2.14h2.76v-4.75H12.06v7.47h6.77V387h-6.1v-5.76h3.91v3.14H14.93v-1.33h-.56v2.14h2.76v-4.75H12.06v7.46h6.77v8.46h-6.1v-5.75h3.91v3.14H14.93v-1.33h-.56v2.14h2.76v-4.75H12.06v7.46h6.77v8.46h-6.1V400h3.91v3.14H14.93v-1.34h-.56V404h2.76v-4.74H12.06v7.46h6.77v8.46h-6.1v-5.75h3.91v3.14H14.93v-1.34h-.56v2.14h2.76v-4.74H12.06v7.46h6.77v8.46h-6.1v-5.76h3.91v3.15H14.93v-1.34h-.56v2.14h2.76V418H12.06v7.47h6.77v8.46h-6.1v-5.76h3.91v3.15H14.93v-1.34h-.56v2.14h2.76v-4.75H12.06v7.46h6.77v8.46h-6.1v-5.75h3.91v3.14H14.93V439.3h-.56v2.14h2.76v-4.75H12.06v7.46h6.77v8.46h-6.1v-5.75h3.91V450H14.93v-1.34h-.56v2.14h2.76v-4.74H12.06v7.46h6.77V462h-6.1v-5.75h3.91v3.14H14.93V458h-.56v2.14h2.76v-4.74H12.06v7.46h6.77v8.46h-6.1V465.6h3.91v3.14H14.93V467.4h-.56v2.14h2.76v-4.75H12.06v7.47h6.77v8.46h-6.1V475h3.91v3.15H14.93v-1.34h-.56v2.14h2.76v-4.75H12.06v7.46h6.77v8.46h-6.1v-5.75h3.91v3.14H14.93v-1.33h-.56v2.14h2.76v-4.75H12.06V491h6.77v8.46h-6.1V493.7h3.91v3.14H14.93V495.5h-.56v2.15h2.76V492.9H12.06v7.46h6.77v8.46h-6.1v-5.75h3.91v3.14H14.93v-1.34h-.56V507h2.76v-4.74H12.06v7.46h6.77v8.46h-6.1v-5.75h3.91v3.14H14.93v-1.34h-.56v2.14h2.76v-4.75H12.06v7.47h6.77v8.46h-6.1V521.8h3.91V525H14.93v-1.34h-.56v2.14h2.76V521H12.06v7.47h6.77v8.45h-6.1v-5.75h3.91v3.14H14.93V533h-.56v2.14h2.76v-4.75H12.06v7.46h6.77v8.46h-6.1v-5.75h3.91v3.14H14.93v-1.33h-.56v2.14h2.76v-4.75H12.06v7.46h6.77v8.46h-6.1v-5.75h3.91v3.14H14.93v-1.34h-.56v2.14h2.76v-4.74H12.06v7.46h6.77V565h-6.1v-5.75h3.91v3.14H14.93v-1.34h-.56v2.14h2.76v-4.75H12.06v7.47h6.77v8.46h-6.1v-5.76h3.91v3.15H14.93v-1.34h-.56v2.14h2.76v-4.75H12.06v7.47h6.77v8.46h-6.1V578h3.91v3.14H14.93v-1.33h-.56V582h2.76v-4.75H12.06v7.46h6.77v8.46h-6.1v-5.75h3.91v3.14H14.93v-1.33h-.56v2.14h2.76v-4.75H12.06V594h6.77v8.46h-6.1v-5.75h3.91v3.14H14.93v-1.34h-.56v2.14h2.76V596H12.06v7.46h6.77v8.46h-6.1v-5.75h3.91v3.14H14.93v-1.34h-.56v2.14h2.76v-4.74H12.06v7.46h6.77v8.46h-6.1v-5.75h3.91v3.14H14.93v-1.34h-.56v2.14h2.76v-4.75H12.06v7.47h6.77v8.46h-6.1v-5.76h3.91V628H14.93v-1.34h-.56v2.14h2.76v-4.75H12.06v7.46h6.77V640h-6.1v-5.75h3.91v3.14H14.93V636h-.56v2.14h2.76v-4.75H12.06v7.46h6.77v8.46h-6.1v-5.75h3.91v3.14H14.93v-1.34h-.56v2.14h2.76v-4.74H12.06v7.46h6.77v8.46h-6.1V653h3.91v3.14H14.93v-1.34h-.56v2.14h2.76v-4.74H12.06v7.46h6.77v8.46h-6.1v-5.75h3.91v3.14H14.93v-1.34h-.56v2.14h2.76v-4.75H12.06V669h6.77v8.46h-6.1v-5.76h3.91v3.15H14.93V673.5h-.56v2.14h2.76v-4.75H12.06v7.47h6.77v8.45h-6.1v-5.75h3.91v3.14H14.93v-1.33h-.56V685h2.76v-4.75H12.06v7.46h6.77v8.46h-6.1v-5.75h3.91v3.14H14.93v-1.34h-.56v2.15h2.76v-4.75H12.06v7.46h6.77v8.46h-6.1V699.8h3.91v3.14H14.93V701.6h-.56v2.14h2.76V699H12.06v7.46h6.77v8.46h-6.1v-5.75h3.91v3.14H14.93V711h-.56v2.14h2.76v-4.75H12.06v7.47h6.77v8.46h-6.1v-5.76h3.91v3.15H14.93v-1.34h-.56v2.14h2.76v-4.75H12.06v7.47h6.77v8.45h-6.1V727.9h3.91V731H14.93v-1.33h-.56v2.14h2.76V727.1H12.06v7.46h6.77V743h-6.1v-5.75h3.91v3.14H14.93v-1.33h-.56v2.14h2.76v-4.75H12.06v7.46h6.77v8.46h-6.1v-5.75h3.91v3.14H14.93v-1.34h-.56v2.14h2.76v-4.74H12.06v7.46h6.77v8.46h-6.1V756h3.91v3.14H14.93v-1.34h-.56V760h2.76v-4.74H12.06v7.46h6.77v8.46h-6.1v-5.76h3.91v3.15H14.93v-1.34h-.56v2.14h2.76v-4.75H12.06V772h6.77v8.46h-6.1v-5.76h3.91v3.14H14.93v-1.33h-.56v2.14h2.76v-4.75H12.06v7.47h6.77v8.45h-6.1v-5.75h3.91v3.14H14.93v-1.33h-.56v2.14h2.76v-4.75H12.06v7.46h6.77v8.46h-6.1v-5.75h3.91v3.14H14.93v-1.34h-.56v2.15h2.76v-4.75H12.06v7.46h6.77v8.46h-6.1v-5.75h3.91V806H14.93v-1.34h-.56v2.14h2.76v-4.74H12.06v7.46h6.77v9.37h9.62v6.59h7.67v-4.94H31.24v2.69h2.2v-.55H32.07V821h3.22v3.81H29.38v-5.94h8.69v6.59h7.67v-4.94H40.86v2.69h2.2v-.55H41.69V821h3.23v3.81H39v-5.94H47.7v6.59h7.66v-4.94H50.49v2.69h2.2v-.55H51.31V821h3.23v3.81H48.63v-5.94h8.69v6.59H65v-4.94H60.11v2.69h2.2v-.55H60.94V821h3.22v3.81H58.25v-5.94h8.69v6.59h7.67v-4.94H69.73v2.69h2.2v-.55H70.56V821h3.23v3.81H67.88v-5.94h8.69v6.59h7.66v-4.94H79.36v2.69h2.2v-.55H80.18V821h3.23v3.81H77.5v-5.94h8.69v6.59h7.67v-4.94H89v2.69h2.2v-.55H89.8V821H93v3.81H87.12v-5.94h8.69v6.59h7.67v-4.94H98.6v2.69h2.2v-.55H99.43V821h3.23v3.81H96.75v-5.94h8.68v6.59h7.67v-4.94h-4.87v2.69h2.19v-.55h-1.37V821h3.23v3.81h-5.91v-5.94h8.69v6.59h7.66v-4.94h-4.87v2.69h2.2v-.55h-1.38V821h3.23v3.81H116v-5.94h8.69v6.59h7.67v-4.94h-4.88v2.69h2.2v-.55H128.3V821h3.22v3.81h-5.91v-5.94h8.69v6.59H142v-4.94h-4.88v2.69h2.2v-.55h-1.37V821h3.23v3.81h-5.91v-5.94h8.69v6.59h7.66v-4.94h-4.87v2.69h2.2v-.55h-1.38V821h3.23v3.81h-5.91v-5.94h8.69v6.59h7.67v-4.94h-4.88v2.69h2.2v-.55h-1.38V821h3.23v3.81h-5.91v-5.94h8.69v6.59h7.67v-4.94H166v2.69h2.2v-.55h-1.37V821H170v3.81h-5.91v-5.94h8.69v6.59h7.66v-4.94h-4.87v2.69h2.2v-.55h-1.38V821h3.23v3.81h-5.91v-5.94h8.69v6.59h7.66v-4.94h-4.87v2.69h2.2v-.55H186V821h3.23v3.81h-5.91v-5.94H192v6.59h7.67v-4.94h-4.88v2.69H197v-.55h-1.37V821h3.22v3.81H193v-5.94h8.68v6.59h7.67v-4.94h-4.87v2.69h2.19v-.55h-1.37V821h3.23v3.81H202.6v-5.94h8.69v6.59H219v-4.94h-4.87v2.69h2.2v-.55H214.9V821h3.23v3.81h-5.91v-5.94h8.69v6.59h7.67v-4.94H223.7v2.69h2.2v-.55h-1.37V821h3.22v3.81h-5.91v-5.94h8.69v6.59h7.67v-4.94h-4.88v2.69h2.2v-.55h-1.37V821h3.23v3.81h-5.91v-5.94h8.69v6.59h7.66v-4.94H243v2.69h2.2v-.55h-1.38V821H247v3.81h-5.91v-5.94h8.69v6.59h7.67v-4.94h-4.88v2.69h2.2v-.55h-1.38V821h3.23v3.81h-5.91v-5.94h8.69v6.59h7.67v-4.94h-4.88v2.69h2.2v-.55H263V821h3.23v3.81h-5.91v-5.94H269v6.59h7.66v-4.94h-4.87v2.69H274v-.55h-1.37V821h3.23v3.81H270v-5.94h8.69v6.59h7.66v-4.94h-4.87v2.69h2.2v-.55h-1.38V821h3.23v3.81h-5.91v-5.94h8.69v6.59h7.67v-4.94h-4.88v2.69h2.2v-.55h-1.37V821h3.22v3.81H289.2v-5.94h8.69v6.59h7.67v-4.94h-4.88v2.69h2.2v-.55h-1.37V821h3.23v3.81h-5.91v-5.94h8.69v6.59h7.66v-4.94h-4.87v2.69h2.2v-.55h-1.38V821h3.23v3.81h-5.91v-5.94h8.69v6.59h7.67v-4.94h-4.88v2.69h2.2v-.55h-1.37V821H324v3.81h-5.91v-5.94h8.69v6.59h7.67v-4.94h-4.88v2.69h2.2v-.55h-1.37V821h3.23v3.81H327.7v-5.94h8.69v6.59h7.66v-4.94h-4.87v2.69h2.2v-.55H340V821h3.23v3.81h-5.91v-5.94H346v6.59h7.67v-4.94H348.8v2.69H351v-.55h-1.38V821h3.23v3.81h-5.91v-5.94h8.69v6.59h7.67v-4.94h-4.88v2.69h2.2v-.55h-1.37V821h3.23v3.81h-5.91v-5.94h8.69v6.59h7.66v-4.94h-4.87v2.69h2.19v-.55h-1.37V821h3.23v3.81h-5.91v-5.94h8.69v6.59h7.66v-4.94h-4.87v2.69h2.2v-.55h-1.38V821h3.23v3.81h-5.91v-5.94h8.69v6.59h7.67v-4.94h-4.88v2.69h2.2v-.55h-1.37V821h3.22v3.81h-5.91v-5.94h8.69v6.59h7.67v-4.94h-4.88v2.69h2.2v-.55h-1.37V821H401v3.81h-5.91v-5.94h8.69v6.59h7.66v-4.94h-4.87v2.69h2.2v-.55h-1.38V821h3.23v3.81h-5.91v-5.94h8.69v6.59H421v-4.94h-4.88v2.69h2.2v-.55H417V821h3.22v3.81H414.3v-5.94H423v6.59h7.67v-4.94h-4.88v2.69H428v-.55h-1.37V821h3.23v3.81h-5.91v-5.94h8.69v6.59h7.66v-4.94h-4.87v2.69h2.2v-.55h-1.38V821h3.23v3.81h-5.91v-5.94h8.69v6.59h7.66v-4.94H445v2.69h2.2v-.55h-1.38V821h3.23v3.81h-5.91v-5.94h8.69v6.59h7.67v-4.94h-4.88v2.69h2.2v-.55h-1.37V821h3.22v3.81h-5.9v-5.94h8.69v6.59h7.66v-4.94h-4.87v2.69h2.19v-.55H465.1V821h3.23v3.81h-5.91v-5.94h8.69v6.59h7.66v-4.94H473.9v2.69h2.2v-.55h-1.38V821H478v3.81H472v-5.94h8.69v6.59h7.67v-4.94h-4.88v2.69h2.2v-.55h-1.37V821h3.22v3.81h-5.91v-5.94h8.69v6.59H498v-4.94h-4.88v2.69h2.2v-.55H494V821h3.23v3.81h-5.91v-5.94H500v6.59h7.66v-4.94h-4.87v2.69H505v-.55h-1.38V821h3.23v3.81h-5.91v-5.94h8.69v6.59h7.67v-4.94h-4.88v2.69h2.2v-.55h-1.37V821h3.22v3.81h-5.91v-5.94h8.69v6.59h7.67v-4.94H522v2.69h2.2v-.55h-1.37V821h3.23v3.81h-5.91v-5.94h8.69v6.59h7.66v-4.94h-4.87v2.69h2.19v-.55h-1.37V821h3.23v3.81h-5.91v-5.94h8.69v6.59h7.66v-4.94h-4.87v2.69h2.2v-.55h-1.38V821h3.23v3.81H539.4v-5.94h8.69v6.59h7.67v-4.94h-4.88v2.69h2.2v-.55h-1.37V821h3.22v3.81H549v-5.94h8.68v6.59h7.67v-4.94H560.5v2.69h2.2v-.55h-1.37V821h3.23v3.81h-5.91v-5.94h8.69v6.59H575v-4.94h-4.87v2.69h2.2v-.55H571V821h3.23v3.81h-5.91v-5.94h8.18v-8h6.1v5.75h-3.79v-3.14h1.59v1.34H581v-2.14h-2.88v4.75h5.07V810h-6.77v-8.46h6.1v5.74h-3.79v-3.14h1.59v1.34H581v-2.14h-2.88v4.75h5.07v-7.46h-6.77v-8.46h6.1v5.75h-3.79v-3.15h1.59v1.34H581V794h-2.88v4.75h5.07v-7.46h-6.77v-8.46h6.1v5.75h-3.79v-3.14h1.59v1.33H581v-2.14h-2.88v4.75h5.07V781.9h-6.77v-8.46h6.1v5.75h-3.79v-3.14h1.59v1.34H581v-2.15h-2.88V780h5.07v-7.46h-6.77v-8.47h6.1v5.75h-3.79v-3.14h1.59V768H581v-2.15h-2.88v4.76h5.07v-7.46h-6.77v-8.46h6.1v5.74h-3.79v-3.14h1.59v1.34H581v-2.14h-2.88v4.75h5.07V753.8h-6.77v-8.46h6.1v5.74h-3.79v-3.14h1.59v1.34H581v-2.14h-2.88v4.75h5.07v-7.46h-6.77V736h6.1v5.75h-3.79v-3.14h1.59v1.33H581v-2.14h-2.88v4.75h5.07v-7.46h-6.77V726.6h6.1v5.75h-3.79v-3.14h1.59v1.34H581V728.4h-2.88v4.75h5.07V725.7h-6.77v-8.47h6.1V723h-3.79v-3.14h1.59v1.34H581V719h-2.88v4.76h5.07v-7.46h-6.77v-8.47h6.1v5.75h-3.79v-3.14h1.59v1.34H581v-2.14h-2.88v4.75h5.07V707h-6.77V698.5h6.1v5.74h-3.79V701.1h1.59v1.34H581V700.3h-2.88v4.75h5.07v-7.46h-6.77v-8.46h6.1v5.75h-3.79v-3.15h1.59v1.34H581v-2.14h-2.88v4.75h5.07v-7.46h-6.77v-8.46h6.1v5.75h-3.79v-3.14h1.59v1.34H581v-2.15h-2.88v4.75h5.07v-7.45h-6.77v-8.47h6.1v5.75h-3.79V673h1.59v1.34H581v-2.15h-2.88V677h5.07v-7.46h-6.77V661h6.1v5.75h-3.79v-3.14h1.59V665H581v-2.14h-2.88v4.75h5.07v-7.46h-6.77v-8.46h6.1v5.74h-3.79v-3.14h1.59v1.34H581v-2.14h-2.88v4.75h5.07v-7.46h-6.77v-8.46h6.1V648h-3.79v-3.14h1.59v1.34H581v-2.14h-2.88v4.75h5.07v-7.46h-6.77v-8.46h6.1v5.75h-3.79v-3.14h1.59v1.33H581v-2.14h-2.88v4.75h5.07V632h-6.77v-8.46h6.1v5.75h-3.79v-3.14h1.59v1.34H581v-2.15h-2.88v4.76h5.07v-7.46h-6.77v-8.47h6.1v5.75h-3.79v-3.14h1.59v1.34H581V616h-2.88v4.75h5.07v-7.46h-6.77v-8.46h6.1v5.74h-3.79v-3.14h1.59v1.34H581v-2.14h-2.88v4.75h5.07v-7.46h-6.77v-8.46h6.1v5.74h-3.79v-3.14h1.59v1.34H581v-2.14h-2.88V602h5.07v-7.46h-6.77v-8.46h6.1v5.75h-3.79v-3.14h1.59V590H581v-2.14h-2.88v4.75h5.07v-7.46h-6.77v-8.46h6.1v5.75h-3.79v-3.14h1.59v1.33H581v-2.14h-2.88v4.76h5.07v-7.46h-6.77v-8.47h6.1v5.75h-3.79V570h1.59v1.34H581v-2.15h-2.88v4.76h5.07v-7.46h-6.77V558h6.1v5.75h-3.79v-3.14h1.59v1.34H581v-2.14h-2.88v4.75h5.07v-7.46h-6.77v-8.46h6.1v5.74h-3.79v-3.14h1.59v1.34H581v-2.14h-2.88v4.75h5.07V547.7h-6.77v-8.46h6.1V545h-3.79v-3.14h1.59v1.33H581V541h-2.88v4.75h5.07v-7.46h-6.77v-8.46h6.1v5.75h-3.79v-3.14h1.59v1.33H581v-2.14h-2.88v4.75h5.07V529h-6.77V520.5h6.1v5.75h-3.79v-3.14h1.59v1.34H581V522.3h-2.88v4.76h5.07V519.6h-6.77v-8.47h6.1v5.75h-3.79v-3.14h1.59v1.34H581v-2.14h-2.88v4.75h5.07v-7.46h-6.77v-8.46h6.1v5.74h-3.79v-3.14h1.59v1.34H581v-2.14h-2.88v4.75h5.07v-7.46h-6.77V492.4h6.1v5.75h-3.79V495h1.59v1.34H581V494.2h-2.88V499h5.07v-7.46h-6.77V483h6.1v5.75h-3.79v-3.14h1.59V487H581v-2.14h-2.88v4.75h5.07v-7.46h-6.77v-8.46h6.1v5.75h-3.79v-3.14h1.59v1.34H581v-2.15h-2.88v4.76h5.07v-7.46h-6.77v-8.47h6.1V470h-3.79V466.9h1.59v1.34H581V466.1h-2.88v4.75h5.07v-7.46h-6.77v-8.46h6.1v5.74h-3.79v-3.14h1.59v1.34H581v-2.14h-2.88v4.75h5.07V454h-6.77v-8.46h6.1v5.74h-3.79v-3.14h1.59v1.34H581v-2.14h-2.88v4.75h5.07v-7.46h-6.77v-8.46h6.1v5.75h-3.79V438.8h1.59v1.33H581V438h-2.88v4.75h5.07v-7.46h-6.77v-8.46h6.1v5.75h-3.79v-3.14h1.59v1.34H581v-2.15h-2.88v4.76h5.07v-7.46h-6.77v-8.47h6.1v5.75h-3.79v-3.14h1.59v1.34H581v-2.15h-2.88V424h5.07v-7.46h-6.77v-8.46h6.1v5.74h-3.79v-3.14h1.59V412H581v-2.14h-2.88v4.75h5.07v-7.46h-6.77v-8.46h6.1v5.74h-3.79v-3.14h1.59v1.34H581v-2.14h-2.88v4.75h5.07v-7.46h-6.77v-8.46h6.1v5.75h-3.79V392h1.59v1.33H581v-2.14h-2.88v4.75h5.07v-7.46h-6.77V380h6.1v5.75h-3.79v-3.14h1.59v1.33H581v-2.14h-2.88v4.76h5.07v-7.46h-6.77v-8.47h6.1v5.75h-3.79v-3.14h1.59v1.34H581v-2.15h-2.88v4.76h5.07v-7.46h-6.77v-8.47h6.1V367h-3.79v-3.14h1.59v1.34H581v-2.14h-2.88v4.75h5.07v-7.46h-6.77v-8.46h6.1v5.74h-3.79v-3.14h1.59v1.34H581v-2.14h-2.88v4.75h5.07V351h-6.77v-8.46h6.1v5.75h-3.79v-3.14h1.59v1.33H581v-2.14h-2.88v4.75h5.07V341.6h-6.77v-8.46h6.1v5.75h-3.79v-3.14h1.59v1.33H581v-2.14h-2.88v4.75h5.07v-7.46h-6.77v-8.46h6.1v5.75h-3.79v-3.14h1.59v1.34H581v-2.15h-2.88v4.76h5.07v-7.46h-6.77V314.4h6.1v5.75h-3.79V317h1.59v1.34H581V316.2h-2.88V321h5.07V313.5h-6.77V305h6.1v5.74h-3.79v-3.14h1.59V309H581v-2.14h-2.88v4.75h5.07v-7.46h-6.77v-8.46h6.1v5.75h-3.79v-3.15h1.59v1.34H581v-2.14h-2.88v4.75h5.07v-7.46h-6.77V286.3h6.1v5.75h-3.79v-3.14h1.59v1.33H581V288.1h-2.88v4.75h5.07v-7.46h-6.77v-8.46h6.1v5.75h-3.79v-3.14h1.59v1.34H581v-2.15h-2.88v4.76h5.07V276h-6.77v-8.47h6.1v5.75h-3.79v-3.14h1.59v1.34H581v-2.15h-2.88v4.76h5.07v-7.46h-6.77V258.2h6.1v5.74h-3.79V260.8h1.59v1.34H581V260h-2.88v4.75h5.07v-7.46h-6.77v-8.46h6.1v5.74h-3.79v-3.14h1.59v1.34H581v-2.14h-2.88v4.75h5.07v-7.46h-6.77v-8.46h6.1v5.75h-3.79v-3.14h1.59v1.33H581v-2.14h-2.88V246h5.07v-7.46h-6.77v-8.46h6.1v5.75h-3.79V232.7h1.59V234H581v-2.14h-2.88v4.76h5.07v-7.46h-6.77v-8.47h6.1v5.75h-3.79v-3.14h1.59v1.34H581v-2.15h-2.88v4.76h5.07v-7.46h-6.77v-8.47h6.1v5.75h-3.79V214h1.59v1.34H581v-2.14h-2.88v4.75h5.07v-7.46h-6.77V202h6.1v5.74h-3.79v-3.14h1.59v1.34H581v-2.14h-2.88v4.75h5.07v-7.46h-6.77v-8.46h6.1v5.75h-3.79v-3.14h1.59v1.33H581v-2.14h-2.88v4.75h5.07v-7.46h-6.77v-8.46h6.1V189h-3.79v-3.14h1.59v1.33H581v-2.14h-2.88v4.75h5.07v-7.45h-6.77v-8.47h6.1v5.75h-3.79v-3.14h1.59v1.34H581v-2.15h-2.88v4.76h5.07V173h-6.77v-8.47h6.1v5.75h-3.79v-3.14h1.59v1.34H581v-2.14h-2.88v4.75h5.07v-7.46h-6.77v-8.46h6.1v5.74h-3.79v-3.14h1.59v1.34H581V157h-2.88v4.75h5.07v-7.46h-6.77v-8.46h6.1v5.74h-3.79v-3.14h1.59v1.34H581v-2.14h-2.88v4.75h5.07v-7.46h-6.77v-8.46h6.1v5.75h-3.79V139h1.59v1.33H581v-2.14h-2.88V143h5.07V135.5h-6.77V127h6.1v5.75h-3.79v-3.14h1.59V131H581v-2.15h-2.88v4.76h5.07v-7.46h-6.77v-8.47h6.1v5.75h-3.79v-3.14h1.59v1.34H581v-2.15h-2.88v4.76h5.07v-7.46h-6.77v-8.46h6.1v5.74h-3.79v-3.14h1.59v1.34H581v-2.14h-2.88v4.75h5.07V107.4h-6.77V98.94h6.1v5.74h-3.79v-3.14h1.59v1.34H581v-2.14h-2.88v4.75h5.07V98h-6.77V89.57h6.1v5.75h-3.79V92.18h1.59v1.33H581V91.37h-2.88v4.75h5.07V88.66h-6.77V80.2h6.1V86h-3.79V82.81h1.59v1.34H581V82h-2.88v4.76h5.07V79.3h-6.77V70.83h6.1v5.75h-3.79V73.44h1.59v1.34H581V72.63h-2.88v4.76h5.07V69.93h-6.77V61.47h6.1v5.74h-3.79V64.07h1.59v1.34H581V63.27h-2.88V68h5.07V60.56h-6.77V52.1h6.1v5.74h-3.79V54.7h1.59V56H581V53.9h-2.88v4.75h5.07V51.19h-6.77V42.73h6.1v5.75h-3.79V45.33h1.59v1.34H581V44.53h-2.88v4.75h5.07V41.82h-6.77V33.36h6.1v5.75h-3.79V36h1.59V37.3H581V35.16h-2.88v4.75h5.07V32.46h-6.77V24h6.1v5.75h-3.79V26.6h1.59v1.34H581V25.79h-2.88v4.76h5.07V23.09h-6.77ZM575,817.5H20.32v-793H575Z"></path>
    <path d="M577,19.57v3h6.26v-6.1H577Zm1.43-1.69h3.4V21.2h-3.4Z"></path>
    <path d="M577,822.45v3h6.26v-6.09H577Zm1.43-1.68h3.4v3.31h-3.4Z"></path>
    <path d="M10.07,14.54h0V827.35H585.23V14.54Zm573.66,8.05v8.46h-6.1V25.29h3.91v3.15h-1.71V27.1h-.56v2.14H582V24.49H577V32h6.77v8.45h-6.1V34.66h3.91V37.8h-1.71V36.47h-.56v2.14H582V33.86H577v7.46h6.77v8.46h-6.1V44h3.91v3.14h-1.71V45.83h-.56V48H582V43.23H577v7.46h6.77v8.46h-6.1V53.4h3.91v3.14h-1.71V55.2h-.56v2.14H582V52.6H577v7.46h6.77v8.46h-6.1V62.77h3.91v3.14h-1.71V64.57h-.56v2.14H582V62H577v7.46h6.77v8.46h-6.1V72.13h3.91v3.15h-1.71V73.94h-.56v2.14H582V71.33H577V78.8h6.77v8.45h-6.1V81.5h3.91v3.14h-1.71V83.31h-.56v2.14H582V80.7H577v7.46h6.77v8.46h-6.1V90.87h3.91V94h-1.71V92.68h-.56v2.14H582V90.07H577v7.46h6.77V106h-6.1v-5.75h3.91v3.14h-1.71V102h-.56v2.14H582V99.44H577v7.46h6.77v8.46h-6.1v-5.75h3.91v3.14h-1.71v-1.34h-.56v2.14H582v-4.74H577v7.46h6.77v8.46h-6.1V119h3.91v3.15h-1.71v-1.34h-.56v2.14H582v-4.75H577v7.47h6.77v8.46h-6.1v-5.76h3.91v3.15h-1.71v-1.34h-.56v2.14H582v-4.75H577V135h6.77v8.46h-6.1v-5.75h3.91v3.14h-1.71v-1.33h-.56v2.14H582v-4.75H577v7.46h6.77v8.46h-6.1v-5.75h3.91v3.14h-1.71v-1.34h-.56V151H582v-4.74H577v7.46h6.77v8.46h-6.1v-5.75h3.91v3.14h-1.71v-1.34h-.56v2.14H582v-4.74H577v7.46h6.77v8.46h-6.1v-5.75h3.91V169h-1.71v-1.34h-.56v2.14H582V165H577v7.47h6.77v8.46h-6.1v-5.76h3.91v3.15h-1.71V177h-.56v2.14H582v-4.75H577v7.47h6.77v8.45h-6.1v-5.75h3.91v3.14h-1.71v-1.33h-.56v2.14H582v-4.75H577v7.46h6.77v8.46h-6.1v-5.75h3.91v3.14h-1.71v-1.33h-.56v2.14H582v-4.75H577v7.46h6.77V209h-6.1v-5.75h3.91v3.14h-1.71v-1.34h-.56v2.14H582v-4.74H577V210h6.77v8.46h-6.1v-5.75h3.91v3.14h-1.71v-1.34h-.56v2.14H582v-4.75H577v7.47h6.77v8.46h-6.1V222h3.91v3.15h-1.71v-1.34h-.56V226H582v-4.75H577v7.47h6.77v8.46h-6.1v-5.76h3.91v3.14h-1.71V233.2h-.56v2.14H582v-4.75H577v7.46h6.77v8.46h-6.1v-5.75h3.91v3.14h-1.71v-1.33h-.56v2.14H582V240H577v7.46h6.77v8.46h-6.1v-5.75h3.91v3.14h-1.71v-1.34h-.56v2.14H582v-4.74H577v7.46h6.77v8.46h-6.1V259.5h3.91v3.14h-1.71V261.3h-.56v2.14H582V258.7H577v7.46h6.77v8.46h-6.1v-5.76h3.91V272h-1.71v-1.34h-.56v2.14H582v-4.75H577v7.47h6.77V284h-6.1v-5.76h3.91v3.15h-1.71V280h-.56v2.14H582v-4.75H577v7.46h6.77v8.46h-6.1V287.6h3.91v3.14h-1.71v-1.33h-.56v2.14H582V286.8H577v7.46h6.77v8.46h-6.1V297h3.91v3.14h-1.71v-1.34h-.56v2.15H582v-4.75H577v7.46h6.77v8.46h-6.1v-5.75h3.91v3.14h-1.71v-1.34h-.56v2.14H582v-4.74H577V313h6.77v8.46h-6.1V315.7h3.91v3.15h-1.71v-1.34h-.56v2.14H582V314.9H577v7.47h6.77v8.46h-6.1v-5.76h3.91v3.15h-1.71v-1.34h-.56V329H582v-4.75H577v7.46h6.77v8.46h-6.1v-5.75h3.91v3.14h-1.71v-1.33h-.56v2.14H582v-4.75H577v7.46h6.77v8.46h-6.1v-5.75h3.91V347h-1.71v-1.33h-.56v2.14H582V343H577v7.46h6.77v8.46h-6.1v-5.75h3.91v3.14h-1.71V355h-.56v2.14H582v-4.74H577v7.46h6.77v8.46h-6.1v-5.75h3.91v3.14h-1.71v-1.34h-.56v2.14H582v-4.75H577v7.47h6.77v8.46h-6.1v-5.76h3.91v3.15h-1.71v-1.34h-.56v2.14H582v-4.75H577v7.47h6.77V387h-6.1v-5.76h3.91v3.14h-1.71v-1.33h-.56v2.14H582v-4.75H577v7.46h6.77v8.46h-6.1v-5.75h3.91v3.14h-1.71v-1.33h-.56v2.14H582v-4.75H577v7.46h6.77v8.46h-6.1V400h3.91v3.14h-1.71v-1.34h-.56V404H582v-4.74H577v7.46h6.77v8.46h-6.1v-5.75h3.91v3.14h-1.71v-1.34h-.56v2.14H582v-4.74H577v7.46h6.77v8.46h-6.1v-5.76h3.91v3.15h-1.71v-1.34h-.56v2.14H582V418H577v7.47h6.77v8.46h-6.1v-5.76h3.91v3.15h-1.71v-1.34h-.56v2.14H582v-4.75H577v7.46h6.77v8.46h-6.1v-5.75h3.91v3.14h-1.71V439.3h-.56v2.14H582v-4.75H577v7.46h6.77v8.46h-6.1v-5.75h3.91V450h-1.71v-1.34h-.56v2.14H582v-4.74H577v7.46h6.77V462h-6.1v-5.75h3.91v3.14h-1.71V458h-.56v2.14H582v-4.74H577v7.46h6.77v8.46h-6.1V465.6h3.91v3.14h-1.71V467.4h-.56v2.14H582v-4.75H577v7.47h6.77v8.46h-6.1V475h3.91v3.15h-1.71v-1.34h-.56v2.14H582v-4.75H577v7.46h6.77v8.46h-6.1v-5.75h3.91v3.14h-1.71v-1.33h-.56v2.14H582v-4.75H577V491h6.77v8.46h-6.1V493.7h3.91v3.14h-1.71V495.5h-.56v2.15H582V492.9H577v7.46h6.77v8.46h-6.1v-5.75h3.91v3.14h-1.71v-1.34h-.56V507H582v-4.74H577v7.46h6.77v8.46h-6.1v-5.75h3.91v3.14h-1.71v-1.34h-.56v2.14H582v-4.75H577v7.47h6.77v8.46h-6.1V521.8h3.91V525h-1.71v-1.34h-.56v2.14H582V521H577v7.47h6.77v8.45h-6.1v-5.75h3.91v3.14h-1.71V533h-.56v2.14H582v-4.75H577v7.46h6.77v8.46h-6.1v-5.75h3.91v3.14h-1.71v-1.33h-.56v2.14H582v-4.75H577v7.46h6.77v8.46h-6.1v-5.75h3.91v3.14h-1.71v-1.34h-.56v2.14H582v-4.74H577v7.46h6.77V565h-6.1v-5.75h3.91v3.14h-1.71v-1.34h-.56v2.14H582v-4.75H577v7.47h6.77v8.46h-6.1v-5.76h3.91v3.15h-1.71v-1.34h-.56v2.14H582v-4.75H577v7.47h6.77v8.46h-6.1V578h3.91v3.14h-1.71v-1.33h-.56V582H582v-4.75H577v7.46h6.77v8.46h-6.1v-5.75h3.91v3.14h-1.71v-1.33h-.56v2.14H582v-4.75H577V594h6.77v8.46h-6.1v-5.75h3.91v3.14h-1.71v-1.34h-.56v2.14H582V596H577v7.46h6.77v8.46h-6.1v-5.75h3.91v3.14h-1.71v-1.34h-.56v2.14H582v-4.74H577v7.46h6.77v8.46h-6.1v-5.75h3.91v3.14h-1.71v-1.34h-.56v2.14H582v-4.75H577v7.47h6.77v8.46h-6.1v-5.76h3.91V628h-1.71v-1.34h-.56v2.14H582v-4.75H577v7.46h6.77V640h-6.1v-5.75h3.91v3.14h-1.71V636h-.56v2.14H582v-4.75H577v7.46h6.77v8.46h-6.1v-5.75h3.91v3.14h-1.71v-1.34h-.56v2.14H582v-4.74H577v7.46h6.77v8.46h-6.1V653h3.91v3.14h-1.71v-1.34h-.56v2.14H582v-4.74H577v7.46h6.77v8.46h-6.1v-5.75h3.91v3.14h-1.71v-1.34h-.56v2.14H582v-4.75H577V669h6.77v8.46h-6.1v-5.76h3.91v3.15h-1.71V673.5h-.56v2.14H582v-4.75H577v7.47h6.77v8.45h-6.1v-5.75h3.91v3.14h-1.71v-1.33h-.56V685H582v-4.75H577v7.46h6.77v8.46h-6.1v-5.75h3.91v3.14h-1.71v-1.34h-.56v2.15H582v-4.75H577v7.46h6.77v8.46h-6.1V699.8h3.91v3.14h-1.71V701.6h-.56v2.14H582V699H577v7.46h6.77v8.46h-6.1v-5.75h3.91v3.14h-1.71V711h-.56v2.14H582v-4.75H577v7.47h6.77v8.46h-6.1v-5.76h3.91v3.15h-1.71v-1.34h-.56v2.14H582v-4.75H577v7.47h6.77v8.45h-6.1V727.9h3.91V731h-1.71v-1.33h-.56v2.14H582V727.1H577v7.46h6.77V743h-6.1v-5.75h3.91v3.14h-1.71v-1.33h-.56v2.14H582v-4.75H577v7.46h6.77v8.46h-6.1v-5.75h3.91v3.14h-1.71v-1.34h-.56v2.14H582v-4.74H577v7.46h6.77v8.46h-6.1V756h3.91v3.14h-1.71v-1.34h-.56V760H582v-4.74H577v7.46h6.77v8.46h-6.1v-5.76h3.91v3.15h-1.71v-1.34h-.56v2.14H582v-4.75H577V772h6.77v8.46h-6.1v-5.76h3.91v3.14h-1.71v-1.33h-.56v2.14H582v-4.75H577v7.47h6.77v8.45h-6.1v-5.75h3.91v3.14h-1.71v-1.33h-.56v2.14H582v-4.75H577v7.46h6.77v8.46h-6.1v-5.75h3.91v3.14h-1.71v-1.34h-.56v2.15H582v-4.75H577v7.46h6.77v8.46h-6.1v-5.75h3.91V806h-1.71v-1.34h-.56v2.14H582v-4.74H577v7.46h6.77V818h-6.1v-5.75h3.91v3.14h-1.71V814h-.56v2.14H582v-4.75H577v7.47h6.77V826h-7.28v-6.59h-7.67v4.94h4.89v-2.81h-2.2v.66h1.37v1.55h-3.23V820h5.91V826h-8.7v-6.59h-7.66v4.94H564v-2.81h-2.2v.66h1.38v1.55H560V820h5.9V826H557.2v-6.59h-7.66v4.94h4.88v-2.81h-2.2v.66h1.37v1.55h-3.22V820h5.9V826h-8.69v-6.59h-7.66v4.94h4.88v-2.81h-2.2v.66H544v1.55h-3.23V820h5.91V826H538v-6.59h-7.67v4.94h4.88v-2.81H533v.66h1.38v1.55h-3.23V820H537V826h-8.7v-6.59h-7.66v4.94h4.88v-2.81h-2.2v.66h1.38v1.55H521.5V820h5.9V826h-8.69v-6.59h-7.66v4.94h4.88v-2.81h-2.2v.66h1.37v1.55h-3.22V820h5.9V826h-8.69v-6.59h-7.67v4.94h4.89v-2.81h-2.2v.66h1.37v1.55h-3.23V820h5.91V826h-8.7v-6.59H491.8v4.94h4.88v-2.81h-2.2v.66h1.38v1.55h-3.23V820h5.9V826h-8.69v-6.59h-7.66v4.94h4.88v-2.81h-2.2v.66h1.37v1.55H483V820h5.9V826h-8.69v-6.59h-7.67v4.94h4.89v-2.81h-2.2v.66h1.37v1.55h-3.23V820h5.91V826h-8.7v-6.59h-7.66v4.94h4.88v-2.81h-2.2v.66H467v1.55h-3.23V820h5.9V826H461v-6.59h-7.66v4.94h4.88v-2.81H456v.66h1.37v1.55h-3.22V820H460V826h-8.69v-6.59h-7.66v4.94h4.88v-2.81h-2.2v.66h1.37v1.55h-3.22V820h5.9V826h-8.69v-6.59h-7.67v4.94H439v-2.81h-2.21v.66h1.38v1.55h-3.23V820h5.91V826h-8.7v-6.59h-7.66v4.94h4.88v-2.81h-2.2v.66h1.38v1.55h-3.23V820h5.9V826h-8.69v-6.59h-7.66v4.94h4.88v-2.81h-2.2v.66h1.37v1.55h-3.22V820h5.9V826h-8.69v-6.59h-7.67v4.94h4.89v-2.81h-2.2v.66h1.37v1.55H406V820h5.91V826h-8.7v-6.59h-7.66v4.94h4.88v-2.81h-2.2v.66h1.38v1.55H396.4V820h5.9V826h-8.69v-6.59H386v4.94h4.88v-2.81h-2.2v.66H390v1.55h-3.22V820h5.9V826H384v-6.59h-7.66v4.94h4.88v-2.81H379v.66h1.37v1.55h-3.23V820h5.91V826h-8.7v-6.59H366.7v4.94h4.88v-2.81h-2.2v.66h1.38v1.55h-3.23V820h5.91V826h-8.7v-6.59h-7.66v4.94H362v-2.81h-2.2v.66h1.37v1.55h-3.22V820h5.9V826h-8.69v-6.59h-7.66v4.94h4.88v-2.81h-2.2v.66h1.37v1.55h-3.22V820h5.9V826H345.5v-6.59h-7.67v4.94h4.89v-2.81h-2.21v.66h1.38v1.55h-3.23V820h5.91V826h-8.7v-6.59h-7.66v4.94h4.88v-2.81h-2.2v.66h1.38v1.55H329V820h5.9V826h-8.69v-6.59h-7.66v4.94h4.88v-2.81h-2.2v.66h1.37v1.55h-3.22V820h5.9V826h-8.69v-6.59H309v4.94h4.89v-2.81h-2.2v.66H313v1.55h-3.23V820h5.91V826H307v-6.59h-7.66v4.94h4.88v-2.81H302v.66h1.38v1.55h-3.23V820h5.9V826h-8.69v-6.59h-7.66v4.94h4.88v-2.81h-2.2v.66h1.37v1.55h-3.22V820h5.9V826h-8.69v-6.59H280.1v4.94H285v-2.81h-2.2v.66h1.37v1.55h-3.23V820h5.91V826h-8.69v-6.59h-7.67v4.94h4.88v-2.81h-2.2v.66h1.38v1.55H271.3V820h5.91V826h-8.7v-6.59h-7.66v4.94h4.88v-2.81h-2.2v.66h1.37v1.55h-3.22V820h5.9V826h-8.69v-6.59h-7.66v4.94h4.88v-2.81h-2.2v.66h1.37v1.55h-3.22V820H258V826h-8.69v-6.59H241.6v4.94h4.89v-2.81h-2.21v.66h1.38v1.55h-3.23V820h5.91V826h-8.7v-6.59H232v4.94h4.88v-2.81h-2.2v.66H236v1.55h-3.23V820h5.9V826H230v-6.59h-7.66v4.94h4.88v-2.81H225v.66h1.37v1.55h-3.22V820h5.9V826H220.4v-6.59h-7.67v4.94h4.89v-2.81h-2.2v.66h1.37v1.55h-3.23V820h5.91V826h-8.7v-6.59h-7.66v4.94H208v-2.81h-2.2v.66h1.38v1.55h-3.23V820h5.9V826h-8.69v-6.59h-7.66v4.94h4.88v-2.81h-2.2v.66h1.37v1.55h-3.22V820h5.9V826h-8.69v-6.59h-7.66v4.94h4.88v-2.81h-2.2v.66h1.37v1.55H184.7V820h5.9V826h-8.69v-6.59h-7.67v4.94h4.88v-2.81h-2.2v.66h1.38v1.55h-3.23V820H181V826h-8.7v-6.59h-7.66v4.94h4.88v-2.81h-2.2v.66h1.37v1.55h-3.22V820h5.9V826h-8.69v-6.59H155v4.94h4.88v-2.81h-2.2v.66h1.37v1.55h-3.22V820h5.9V826H153v-6.59h-7.67v4.94h4.89v-2.81h-2.2v.66h1.37v1.55H146.2V820h5.91V826h-8.7v-6.59h-7.66v4.94h4.88v-2.81h-2.2v.66h1.38v1.55h-3.23V820h5.9V826h-8.69v-6.59h-7.66v4.94H131v-2.81h-2.2v.66h1.37v1.55H127V820h5.9V826h-8.69v-6.59h-7.66v4.94h4.88v-2.81h-2.2v.66h1.37v1.55h-3.23V820h5.91V826h-8.7v-6.59h-7.66v4.94h4.88v-2.81h-2.2v.66h1.38v1.55h-3.23V820h5.9V826h-8.69v-6.59H97.26v4.94h4.88v-2.81h-2.2v.66h1.37v1.55H98.09V820H104V826H95.3v-6.59H87.64v4.94h4.88v-2.81h-2.2v.66h1.37v1.55H88.47V820h5.9V826H85.68v-6.59H78v4.94H82.9v-2.81H80.69v.66h1.38v1.55H78.84V820h5.91V826h-8.7v-6.59H68.39v4.94h4.88v-2.81h-2.2v.66h1.38v1.55H69.22V820h5.9V826H66.43v-6.59H58.77v4.94h4.88v-2.81h-2.2v.66h1.37v1.55H59.6V820h5.9V826H56.81v-6.59H49.14v4.94H54v-2.81h-2.2v.66H53.2v1.55H50V820h5.91V826h-8.7v-6.59H39.52v4.94H44.4v-2.81H42.2v.66h1.38v1.55H40.35V820h5.9V826H37.56v-6.59H29.9v4.94h4.88v-2.81h-2.2v.66H34v1.55H30.73V820h5.9V826H27.94v-6.59H20.28v4.94h4.88v-2.81H23v.66h1.37v1.55H21.1V820H27V826H11.54V810.91h6.1v5.75H13.85v-3.14h1.59v1.34h.68v-2.14H13.24v4.75h5.07V810H11.54v-8.46h6.1v5.74H13.85v-3.14h1.59v1.34h.68v-2.14H13.24v4.75h5.07v-7.46H11.54v-8.46h6.1v5.75H13.85v-3.15h1.59v1.34h.68V794H13.24v4.75h5.07v-7.46H11.54v-8.46h6.1v5.75H13.85v-3.14h1.59v1.33h.68v-2.14H13.24v4.75h5.07V781.9H11.54v-8.46h6.1v5.75H13.85v-3.14h1.59v1.34h.68v-2.15H13.24V780h5.07v-7.46H11.54v-8.47h6.1v5.75H13.85v-3.14h1.59V768h.68v-2.15H13.24v4.76h5.07v-7.46H11.54v-8.46h6.1v5.74H13.85v-3.14h1.59v1.34h.68v-2.14H13.24v4.75h5.07V753.8H11.54v-8.46h6.1v5.74H13.85v-3.14h1.59v1.34h.68v-2.14H13.24v4.75h5.07v-7.46H11.54V736h6.1v5.75H13.85v-3.14h1.59v1.33h.68v-2.14H13.24v4.75h5.07v-7.46H11.54V726.6h6.1v5.75H13.85v-3.14h1.59v1.34h.68V728.4H13.24v4.75h5.07V725.7H11.54v-8.47h6.1V723H13.85v-3.14h1.59v1.34h.68V719H13.24v4.76h5.07v-7.46H11.54v-8.47h6.1v5.75H13.85v-3.14h1.59v1.34h.68v-2.14H13.24v4.75h5.07V707H11.54V698.5h6.1v5.74H13.85V701.1h1.59v1.34h.68V700.3H13.24v4.75h5.07v-7.46H11.54v-8.46h6.1v5.75H13.85v-3.15h1.59v1.34h.68v-2.14H13.24v4.75h5.07v-7.46H11.54v-8.46h6.1v5.75H13.85v-3.14h1.59v1.34h.68v-2.15H13.24v4.75h5.07v-7.45H11.54v-8.47h6.1v5.75H13.85V673h1.59v1.34h.68v-2.15H13.24V677h5.07v-7.46H11.54V661h6.1v5.75H13.85v-3.14h1.59V665h.68v-2.14H13.24v4.75h5.07v-7.46H11.54v-8.46h6.1v5.74H13.85v-3.14h1.59v1.34h.68v-2.14H13.24v4.75h5.07v-7.46H11.54v-8.46h6.1V648H13.85v-3.14h1.59v1.34h.68v-2.14H13.24v4.75h5.07v-7.46H11.54v-8.46h6.1v5.75H13.85v-3.14h1.59v1.33h.68v-2.14H13.24v4.75h5.07V632H11.54v-8.46h6.1v5.75H13.85v-3.14h1.59v1.34h.68v-2.15H13.24v4.76h5.07v-7.46H11.54v-8.47h6.1v5.75H13.85v-3.14h1.59v1.34h.68V616H13.24v4.75h5.07v-7.46H11.54v-8.46h6.1v5.74H13.85v-3.14h1.59v1.34h.68v-2.14H13.24v4.75h5.07v-7.46H11.54v-8.46h6.1v5.74H13.85v-3.14h1.59v1.34h.68v-2.14H13.24V602h5.07v-7.46H11.54v-8.46h6.1v5.75H13.85v-3.14h1.59V590h.68v-2.14H13.24v4.75h5.07v-7.46H11.54v-8.46h6.1v5.75H13.85v-3.14h1.59v1.33h.68v-2.14H13.24v4.76h5.07v-7.46H11.54v-8.47h6.1v5.75H13.85V570h1.59v1.34h.68v-2.15H13.24v4.76h5.07v-7.46H11.54V558h6.1v5.75H13.85v-3.14h1.59v1.34h.68v-2.14H13.24v4.75h5.07v-7.46H11.54v-8.46h6.1v5.74H13.85v-3.14h1.59v1.34h.68v-2.14H13.24v4.75h5.07V547.7H11.54v-8.46h6.1V545H13.85v-3.14h1.59v1.33h.68V541H13.24v4.75h5.07v-7.46H11.54v-8.46h6.1v5.75H13.85v-3.14h1.59v1.33h.68v-2.14H13.24v4.75h5.07V529H11.54V520.5h6.1v5.75H13.85v-3.14h1.59v1.34h.68V522.3H13.24v4.76h5.07V519.6H11.54v-8.47h6.1v5.75H13.85v-3.14h1.59v1.34h.68v-2.14H13.24v4.75h5.07v-7.46H11.54v-8.46h6.1v5.74H13.85v-3.14h1.59v1.34h.68v-2.14H13.24v4.75h5.07v-7.46H11.54V492.4h6.1v5.75H13.85V495h1.59v1.34h.68V494.2H13.24V499h5.07v-7.46H11.54V483h6.1v5.75H13.85v-3.14h1.59V487h.68v-2.14H13.24v4.75h5.07v-7.46H11.54v-8.46h6.1v5.75H13.85v-3.14h1.59v1.34h.68v-2.15H13.24v4.76h5.07v-7.46H11.54v-8.47h6.1V470H13.85V466.9h1.59v1.34h.68V466.1H13.24v4.75h5.07v-7.46H11.54v-8.46h6.1v5.74H13.85v-3.14h1.59v1.34h.68v-2.14H13.24v4.75h5.07V454H11.54v-8.46h6.1v5.74H13.85v-3.14h1.59v1.34h.68v-2.14H13.24v4.75h5.07v-7.46H11.54v-8.46h6.1v5.75H13.85V438.8h1.59v1.33h.68V438H13.24v4.75h5.07v-7.46H11.54v-8.46h6.1v5.75H13.85v-3.14h1.59v1.34h.68v-2.15H13.24v4.76h5.07v-7.46H11.54v-8.47h6.1v5.75H13.85v-3.14h1.59v1.34h.68v-2.15H13.24V424h5.07v-7.46H11.54v-8.46h6.1v5.74H13.85v-3.14h1.59V412h.68v-2.14H13.24v4.75h5.07v-7.46H11.54v-8.46h6.1v5.74H13.85v-3.14h1.59v1.34h.68v-2.14H13.24v4.75h5.07v-7.46H11.54v-8.46h6.1v5.75H13.85V392h1.59v1.33h.68v-2.14H13.24v4.75h5.07v-7.46H11.54V380h6.1v5.75H13.85v-3.14h1.59v1.33h.68v-2.14H13.24v4.76h5.07v-7.46H11.54v-8.47h6.1v5.75H13.85v-3.14h1.59v1.34h.68v-2.15H13.24v4.76h5.07v-7.46H11.54v-8.47h6.1V367H13.85v-3.14h1.59v1.34h.68v-2.14H13.24v4.75h5.07v-7.46H11.54v-8.46h6.1v5.74H13.85v-3.14h1.59v1.34h.68v-2.14H13.24v4.75h5.07V351H11.54v-8.46h6.1v5.75H13.85v-3.14h1.59v1.33h.68v-2.14H13.24v4.75h5.07V341.6H11.54v-8.46h6.1v5.75H13.85v-3.14h1.59v1.33h.68v-2.14H13.24v4.75h5.07v-7.46H11.54v-8.46h6.1v5.75H13.85v-3.14h1.59v1.34h.68v-2.15H13.24v4.76h5.07v-7.46H11.54V314.4h6.1v5.75H13.85V317h1.59v1.34h.68V316.2H13.24V321h5.07V313.5H11.54V305h6.1v5.74H13.85v-3.14h1.59V309h.68v-2.14H13.24v4.75h5.07v-7.46H11.54v-8.46h6.1v5.75H13.85v-3.15h1.59v1.34h.68v-2.14H13.24v4.75h5.07v-7.46H11.54V286.3h6.1v5.75H13.85v-3.14h1.59v1.33h.68V288.1H13.24v4.75h5.07v-7.46H11.54v-8.46h6.1v5.75H13.85v-3.14h1.59v1.34h.68v-2.15H13.24v4.76h5.07V276H11.54v-8.47h6.1v5.75H13.85v-3.14h1.59v1.34h.68v-2.15H13.24v4.76h5.07v-7.46H11.54V258.2h6.1v5.74H13.85V260.8h1.59v1.34h.68V260H13.24v4.75h5.07v-7.46H11.54v-8.46h6.1v5.74H13.85v-3.14h1.59v1.34h.68v-2.14H13.24v4.75h5.07v-7.46H11.54v-8.46h6.1v5.75H13.85v-3.14h1.59v1.33h.68v-2.14H13.24V246h5.07v-7.46H11.54v-8.46h6.1v5.75H13.85V232.7h1.59V234h.68v-2.14H13.24v4.76h5.07v-7.46H11.54v-8.47h6.1v5.75H13.85v-3.14h1.59v1.34h.68v-2.15H13.24v4.76h5.07v-7.46H11.54v-8.47h6.1v5.75H13.85V214h1.59v1.34h.68v-2.14H13.24v4.75h5.07v-7.46H11.54V202h6.1v5.74H13.85v-3.14h1.59v1.34h.68v-2.14H13.24v4.75h5.07v-7.46H11.54v-8.46h6.1v5.75H13.85v-3.14h1.59v1.33h.68v-2.14H13.24v4.75h5.07v-7.46H11.54v-8.46h6.1V189H13.85v-3.14h1.59v1.33h.68v-2.14H13.24v4.75h5.07v-7.45H11.54v-8.47h6.1v5.75H13.85v-3.14h1.59v1.34h.68v-2.15H13.24v4.76h5.07V173H11.54v-8.47h6.1v5.75H13.85v-3.14h1.59v1.34h.68v-2.14H13.24v4.75h5.07v-7.46H11.54v-8.46h6.1v5.74H13.85v-3.14h1.59v1.34h.68V157H13.24v4.75h5.07v-7.46H11.54v-8.46h6.1v5.74H13.85v-3.14h1.59v1.34h.68v-2.14H13.24v4.75h5.07v-7.46H11.54v-8.46h6.1v5.75H13.85V139h1.59v1.33h.68v-2.14H13.24V143h5.07V135.5H11.54V127h6.1v5.75H13.85v-3.14h1.59V131h.68v-2.15H13.24v4.76h5.07v-7.46H11.54v-8.47h6.1v5.75H13.85v-3.14h1.59v1.34h.68v-2.15H13.24v4.76h5.07v-7.46H11.54v-8.46h6.1v5.74H13.85v-3.14h1.59v1.34h.68v-2.14H13.24v4.75h5.07V107.4H11.54V98.94h6.1v5.74H13.85v-3.14h1.59v1.34h.68v-2.14H13.24v4.75h5.07V98H11.54V89.57h6.1v5.75H13.85V92.18h1.59v1.33h.68V91.37H13.24v4.75h5.07V88.66H11.54V80.2h6.1V86H13.85V82.81h1.59v1.34h.68V82H13.24v4.76h5.07V79.3H11.54V70.83h6.1v5.75H13.85V73.44h1.59v1.34h.68V72.63H13.24v4.76h5.07V69.93H11.54V61.47h6.1v5.74H13.85V64.07h1.59v1.34h.68V63.27H13.24V68h5.07V60.56H11.54V52.1h6.1v5.74H13.85V54.7h1.59V56h.68V53.9H13.24v4.75h5.07V51.19H11.54V42.73h6.1v5.75H13.85V45.33h1.59v1.34h.68V44.53H13.24v4.75h5.07V41.82H11.54V33.36h6.1v5.75H13.85V36h1.59V37.3h.68V35.16H13.24v4.75h5.07V32.46H11.54V16H28.45v6.6h7.67V17.65H31.24v2.69h2.2v-.55H32.07V18.13h3.22v3.8H29.38V16h8.69v6.6h7.67V17.65H40.86v2.69h2.2v-.55H41.69V18.13h3.23v3.8H39V16H47.7v6.6h7.66V17.65H50.49v2.69h2.2v-.55H51.31V18.13h3.23v3.8H48.63V16h8.69v6.6H65V17.65H60.11v2.69h2.2v-.55H60.94V18.13h3.22v3.8H58.25V16h8.69v6.6h7.67V17.65H69.73v2.69h2.2v-.55H70.56V18.13h3.23v3.8H67.88V16h8.69v6.6h7.66V17.65H79.36v2.69h2.2v-.55H80.18V18.13h3.23v3.8H77.5V16h8.69v6.6h7.67V17.65H89v2.69h2.2v-.55H89.8V18.13H93v3.8H87.12V16h8.69v6.6h7.67V17.65H98.6v2.69h2.2v-.55H99.43V18.13h3.23v3.8H96.75V16h8.68v6.6h7.67V17.65h-4.87v2.69h2.19v-.55h-1.37V18.13h3.23v3.8h-5.91V16h8.69v6.6h7.66V17.65h-4.87v2.69h2.2v-.55h-1.38V18.13h3.23v3.8H116V16h8.69v6.6h7.67V17.65h-4.88v2.69h2.2v-.55H128.3V18.13h3.22v3.8h-5.91V16h8.69v6.6H142V17.65h-4.88v2.69h2.2v-.55h-1.37V18.13h3.23v3.8h-5.91V16h8.69v6.6h7.66V17.65h-4.87v2.69h2.2v-.55h-1.38V18.13h3.23v3.8h-5.91V16h8.69v6.6h7.67V17.65h-4.88v2.69h2.2v-.55h-1.38V18.13h3.23v3.8h-5.91V16h8.69v6.6h7.67V17.65H166v2.69h2.2v-.55h-1.37V18.13H170v3.8h-5.91V16h8.69v6.6h7.66V17.65h-4.87v2.69h2.2v-.55h-1.38V18.13h3.23v3.8h-5.91V16h8.69v6.6h7.66V17.65h-4.87v2.69h2.2v-.55H186V18.13h3.23v3.8h-5.91V16H192v6.6h7.67V17.65h-4.88v2.69H197v-.55h-1.37V18.13h3.22v3.8H193V16h8.68v6.6h7.67V17.65h-4.87v2.69h2.19v-.55h-1.37V18.13h3.23v3.8H202.6V16h8.69v6.6H219V17.65h-4.87v2.69h2.2v-.55H214.9V18.13h3.23v3.8h-5.91V16h8.69v6.6h7.67V17.65H223.7v2.69h2.2v-.55h-1.37V18.13h3.22v3.8h-5.91V16h8.69v6.6h7.67V17.65h-4.88v2.69h2.2v-.55h-1.37V18.13h3.23v3.8h-5.91V16h8.69v6.6h7.66V17.65H243v2.69h2.2v-.55h-1.38V18.13H247v3.8h-5.91V16h8.69v6.6h7.67V17.65h-4.88v2.69h2.2v-.55h-1.38V18.13h3.23v3.8h-5.91V16h8.69v6.6h7.67V17.65h-4.88v2.69h2.2v-.55H263V18.13h3.23v3.8h-5.91V16H269v6.6h7.66V17.65h-4.87v2.69H274v-.55h-1.37V18.13h3.23v3.8H270V16h8.69v6.6h7.66V17.65h-4.87v2.69h2.2v-.55h-1.38V18.13h3.23v3.8h-5.91V16h8.69v6.6h7.67V17.65h-4.88v2.69h2.2v-.55h-1.37V18.13h3.22v3.8H289.2V16h8.69v6.6h7.67V17.65h-4.88v2.69h2.2v-.55h-1.37V18.13h3.23v3.8h-5.91V16h8.69v6.6h7.66V17.65h-4.87v2.69h2.2v-.55h-1.38V18.13h3.23v3.8h-5.91V16h8.69v6.6h7.67V17.65h-4.88v2.69h2.2v-.55h-1.37V18.13H324v3.8h-5.91V16h8.69v6.6h7.67V17.65h-4.88v2.69h2.2v-.55h-1.37V18.13h3.23v3.8H327.7V16h8.69v6.6h7.66V17.65h-4.87v2.69h2.2v-.55H340V18.13h3.23v3.8h-5.91V16H346v6.6h7.67V17.65H348.8v2.69H351v-.55h-1.38V18.13h3.23v3.8h-5.91V16h8.69v6.6h7.67V17.65h-4.88v2.69h2.2v-.55h-1.37V18.13h3.23v3.8h-5.91V16h8.69v6.6h7.66V17.65h-4.87v2.69h2.19v-.55h-1.37V18.13h3.23v3.8h-5.91V16h8.69v6.6h7.66V17.65h-4.87v2.69h2.2v-.55h-1.38V18.13h3.23v3.8h-5.91V16h8.69v6.6h7.67V17.65h-4.88v2.69h2.2v-.55h-1.37V18.13h3.22v3.8h-5.91V16h8.69v6.6h7.67V17.65h-4.88v2.69h2.2v-.55h-1.37V18.13H401v3.8h-5.91V16h8.69v6.6h7.66V17.65h-4.87v2.69h2.2v-.55h-1.38V18.13h3.23v3.8h-5.91V16h8.69v6.6H421V17.65h-4.88v2.69h2.2v-.55H417V18.13h3.22v3.8H414.3V16H423v6.6h7.67V17.65h-4.88v2.69H428v-.55h-1.37V18.13h3.23v3.8h-5.91V16h8.69v6.6h7.66V17.65h-4.87v2.69h2.2v-.55h-1.38V18.13h3.23v3.8h-5.91V16h8.69v6.6h7.66V17.65H445v2.69h2.2v-.55h-1.38V18.13h3.23v3.8h-5.91V16h8.69v6.6h7.67V17.65h-4.88v2.69h2.2v-.55h-1.37V18.13h3.22v3.8h-5.9V16h8.69v6.6h7.66V17.65h-4.87v2.69h2.19v-.55H465.1V18.13h3.23v3.8h-5.91V16h8.69v6.6h7.66V17.65H473.9v2.69h2.2v-.55h-1.38V18.13H478v3.8H472V16h8.69v6.6h7.67V17.65h-4.88v2.69h2.2v-.55h-1.37V18.13h3.22v3.8h-5.91V16h8.69v6.6H498V17.65h-4.88v2.69h2.2v-.55H494V18.13h3.23v3.8h-5.91V16H500v6.6h7.66V17.65h-4.87v2.69H505v-.55h-1.38V18.13h3.23v3.8h-5.91V16h8.69v6.6h7.67V17.65h-4.88v2.69h2.2v-.55h-1.37V18.13h3.22v3.8h-5.91V16h8.69v6.6h7.67V17.65H522v2.69h2.2v-.55h-1.37V18.13h3.23v3.8h-5.91V16h8.69v6.6h7.66V17.65h-4.87v2.69h2.19v-.55h-1.37V18.13h3.23v3.8h-5.91V16h8.69v6.6h7.66V17.65h-4.87v2.69h2.2v-.55h-1.38V18.13h3.23v3.8H539.4V16h8.69v6.6h7.67V17.65h-4.88v2.69h2.2v-.55h-1.37V18.13h3.22v3.8H549V16h8.68v6.6h7.67V17.65H560.5v2.69h2.2v-.55h-1.37V18.13h3.23v3.8h-5.91V16h8.69v6.6H575V17.65h-4.87v2.69h2.2v-.55H571V18.13h3.23v3.8h-5.91V16h15.46Z"></path>
  </g>
</svg>