<svg xmlns="http://www.w3.org/2000/svg" id="Layer_1" data-name="Layer 1" viewBox="0 0 595.28 422.8">
  <title>File KhungVien</title>
  <g>
    <polygon points="11.95 13.69 11.76 13.69 7.57 13.69 7.57 19.13 11.12 19.13 11.12 15.67 9.19 15.67 9.19 17.23 9.58 17.23 9.58 16.26 10.77 16.26 10.77 18.55 8.04 18.55 8.04 14.36 11.95 14.36 11.95 13.69"></polygon>
    <path d="M11.94,13.18V8.89H7.57v4.44h4.37Zm-3.37-.86V9.9H11v2.42Z"></path>
    <rect x="8.93" y="410.85" width="1.66" height="1.69"></rect>
    <polygon points="12.3 13.18 12.3 13.33 12.96 13.33 12.96 9.37 17.09 9.37 17.09 12.14 14.83 12.14 14.83 10.93 15.79 10.93 15.79 10.53 14.25 10.53 14.25 12.49 17.66 12.49 17.66 8.89 12.3 8.89 12.3 11.09 12.3 13.18"></polygon>
    <polygon points="584.15 13.69 584.15 19.13 587.7 19.13 587.7 15.67 585.76 15.67 585.76 17.23 586.16 17.23 586.16 16.26 587.35 16.26 587.35 18.55 584.62 18.55 584.62 14.36 588.52 14.36 588.52 13.69 584.15 13.69"></polygon>
    <rect x="585.51" y="10.27" width="1.66" height="1.69"></rect>
    <path d="M584.15,11.09v2.24h4.38V8.89h-4.38Zm3.38-1.19v2.42h-2.38V9.9Z"></path>
    <polygon points="579.01 12.85 579.01 10.17 581.27 10.17 581.27 11.29 580.31 11.29 580.31 11.78 581.85 11.78 581.85 9.73 578.43 9.73 578.43 13.33 583.79 13.33 583.79 11.09 583.79 8.89 583.14 8.89 583.14 12.85 579.01 12.85"></polygon>
    <rect x="8.93" y="10.27" width="1.66" height="1.69"></rect>
    <rect x="585.51" y="410.85" width="1.66" height="1.69"></rect>
    <path d="M583.79,409.11h4.74v-5.44H585v3.47h2v-1.56h-.47v1h-1.11v-2.29h2.65v4.19h-4.27v-6.17h4.74v-5.43H585v3.46h2v-1.56h-.47v1h-1.11v-2.29h2.65v4.18h-4.27v-6.16h4.74V390H585v3.46h2v-1.56h-.47v1h-1.11v-2.28h2.65v4.18h-4.27v-6.16h4.74V383.2H585v3.47h2V385.1h-.47v1h-1.11v-2.29h2.65V388h-4.27v-6.17h4.74v-5.43H585v3.46h2v-1.56h-.47v1h-1.11V377h2.65v4.18h-4.27V375h4.74v-5.43H585V373h2v-1.56h-.47v1h-1.11v-2.29h2.65v4.19h-4.27v-6.16h4.74v-5.44H585v3.46h2v-1.56h-.47v1h-1.11v-2.29h2.65v4.19h-4.27v-6.17h4.74v-5.43H585v3.46h2v-1.56h-.47v1h-1.11V356.5h2.65v4.18h-4.27v-6.16h4.74v-5.44H585v3.47h2V351h-.47v1h-1.11v-2.29h2.65v4.19h-4.27v-6.17h4.74v-5.43H585v3.46h2v-1.56h-.47v1h-1.11v-2.29h2.65V347h-4.27v-6.16h4.74v-5.43H585v3.46h2v-1.56h-.47v1h-1.11V336h2.65v4.19h-4.27v-6.16h4.74v-5.44H585v3.47h2v-1.57h-.47v1h-1.11V329.2h2.65v4.19h-4.27v-6.17h4.74v-5.43H585v3.46h2v-1.56h-.47v1h-1.11v-2.29h2.65v4.18h-4.27V320.4h4.74V315H585v3.46h2v-1.56h-.47v1h-1.11v-2.29h2.65v4.19h-4.27v-6.16h4.74v-5.44H585v3.46h2V310h-.47v1h-1.11v-2.29h2.65v4.19h-4.27v-6.17h4.74v-5.43H585v3.46h2v-1.56h-.47v1h-1.11v-2.28h2.65v4.18h-4.27v-6.16h4.74v-5.44H585V298h2V296.4h-.47v1h-1.11v-2.29h2.65v4.19h-4.27V293.1h4.74v-5.43H585v3.46h2v-1.56h-.47v1h-1.11v-2.29h2.65v4.18h-4.27v-6.16h4.74v-5.43H585v3.46h2v-1.56h-.47v1h-1.11v-2.29h2.65v4.19h-4.27v-6.16h4.74V274H585v3.47h2v-1.57h-.47v1h-1.11v-2.29h2.65v4.19h-4.27v-6.17h4.74V267.2H585v3.46h2V269.1h-.47v1h-1.11v-2.28h2.65V272h-4.27v-6.16h4.74v-5.43H585v3.46h2v-1.56h-.47v1h-1.11V261h2.65v4.19h-4.27V259h4.74v-5.43H585V257h2v-1.56h-.47v1h-1.11v-2.29h2.65v4.19h-4.27v-6.17h4.74v-5.43H585v3.46h2v-1.56h-.47v1h-1.11v-2.28h2.65v4.18h-4.27v-6.16h4.74V239.9H585v3.47h2v-1.56h-.47v1h-1.11v-2.29h2.65v4.19h-4.27v-6.17h4.74v-5.43H585v3.46h2V235h-.47v1h-1.11v-2.29h2.65v4.18h-4.27v-6.16h4.74v-5.43H585v3.46h2v-1.56h-.47v1h-1.11v-2.29h2.65V231h-4.27v-6.16h4.74v-5.44H585v3.46h2v-1.56h-.47v1h-1.11V220h2.65v4.19h-4.27V218h4.74v-5.43H585v3.46h2v-1.56h-.47v1h-1.11V213.2h2.65v4.18h-4.27v-6.16h4.74v-5.43H585v3.46h2v-1.56h-.47v1h-1.11v-2.29h2.65v4.19h-4.27V204.4h4.74V199H585v3.46h2v-1.56h-.47v1h-1.11v-2.29h2.65v4.19h-4.27v-6.17h4.74v-5.43H585v3.46h2V194h-.47v1h-1.11v-2.28h2.65v4.18h-4.27v-6.16h4.74v-5.44H585v3.47h2v-1.56h-.47v1h-1.11V185.9h2.65v4.19h-4.27v-6.17h4.74v-5.43H585V182h2v-1.56h-.47v1h-1.11v-2.29h2.65v4.18h-4.27V177.1h4.74v-5.43H585v3.46h2v-1.56h-.47v1h-1.11v-2.29h2.65v4.19h-4.27v-6.16h4.74v-5.44H585v3.46h2v-1.56h-.47v1h-1.11v-2.29h2.65v4.19h-4.27v-6.17h4.74V158H585v3.46h2v-1.56h-.47v1h-1.11v-2.28h2.65v4.18h-4.27v-6.16h4.74v-5.44H585v3.47h2V153.1h-.47v1h-1.11v-2.29h2.65V156h-4.27v-6.16h4.74v-5.44H585v3.46h2v-1.56h-.47v1h-1.11V145h2.65v4.18h-4.27V143h4.74v-5.43H585V141h2v-1.56h-.47v1h-1.11v-2.28h2.65v4.18h-4.27v-6.16h4.74v-5.44H585v3.47h2v-1.57h-.47v1h-1.11v-2.29h2.65v4.19h-4.27v-6.17h4.74V123.9H585v3.46h2V125.8h-.47v1h-1.11v-2.29h2.65v4.18h-4.27v-6.16h4.74v-5.43H585v3.46h2V119h-.47v1h-1.11v-2.29h2.65v4.19h-4.27v-6.16h4.74v-5.44H585v3.46h2v-1.56h-.47v1h-1.11v-2.29h2.65V115h-4.27v-6.17h4.74v-5.43H585v3.46h2v-1.56h-.47v1h-1.11V104h2.65v4.18h-4.27V102h4.74V96.61H585v3.46h2V98.51h-.47v1h-1.11V97.19h2.65v4.19h-4.27V95.21h4.74V89.78H585v3.46h2V91.68h-.47v1h-1.11V90.37h2.65v4.19h-4.27V88.39h4.74V83H585v3.46h2V84.86h-.47v1h-1.11V83.55h2.65v4.18h-4.27V81.57h4.74V76.13H585V79.6h2V78h-.47v1h-1.11V76.72h2.65v4.19h-4.27V74.74h4.74V69.31H585v3.46h2V71.21h-.47v1h-1.11V69.9h2.65v4.18h-4.27V67.92h4.74V62.49H585V66h2V64.39h-.47v1h-1.11V63.07h2.65v4.19h-4.27V61.1h4.74V55.66H585v3.46h2V57.56h-.47v1h-1.11V56.25h2.65v4.19h-4.27V54.27h4.74V48.84H585V52.3h2V50.74h-.47v1h-1.11V49.43h2.65v4.18h-4.27V47.45h4.74V42H585v3.47h2V43.92h-.47v1h-1.11V42.6h2.65v4.19h-4.27V40.62h4.74V35.19H585v3.46h2V37.09h-.47v1h-1.11V35.78h2.65V40h-4.27V33.8h4.74V28.37H585v3.46h2V30.27h-.47v1h-1.11V29h2.65v4.19h-4.27V27h4.74V21.54H585V25h2V23.44h-.47v1h-1.11V22.13h2.65v4.19h-4.27V20.15h4.74V14.72H585v3.46h2V16.62h-.47v1h-1.11V15.31h2.65v4.18h-4.27v-5.8h-5.71V9.37h4.13v2.77H580V10.93h1v-.4h-1.54v2h3.41V8.89h-5.36v4.8h-6.07V9.37h4.13v2.77h-2.26V10.93h1v-.4h-1.53v2h3.4V8.89H570.7v4.8h-6.08V9.37h4.13v2.77h-2.26V10.93h1v-.4h-1.54v2h3.41V8.89H564v4.8h-6.08V9.37H562v2.77h-2.25V10.93h1v-.4h-1.54v2h3.41V8.89h-5.36v4.8h-6.08V9.37h4.14v2.77H553V10.93h1v-.4h-1.54v2h3.41V8.89h-5.36v4.8h-6.07V9.37h4.13v2.77h-2.26V10.93h1v-.4h-1.54v2h3.41V8.89h-5.36v4.8h-6.07V9.37h4.13v2.77h-2.26V10.93h1v-.4H539v2h3.41V8.89h-5.36v4.8H531V9.37h4.13v2.77h-2.25V10.93h1v-.4h-1.54v2h3.41V8.89h-5.36v4.8h-6.08V9.37h4.14v2.77h-2.26V10.93h1v-.4h-1.54v2H529V8.89H523.6v4.8h-6.07V9.37h4.13v2.77H519.4V10.93h1v-.4h-1.54v2h3.41V8.89h-5.36v4.8H510.8V9.37h4.13v2.77h-2.26V10.93h1v-.4H512.1v2h3.41V8.89h-5.36v4.8h-6.08V9.37h4.13v2.77H506V10.93h1v-.4h-1.54v2h3.41V8.89h-5.36v4.8h-6.08V9.37h4.14v2.77h-2.26V10.93h1v-.4h-1.54v2h3.41V8.89h-5.36v4.8h-6.07V9.37h4.13v2.77h-2.26V10.93h1v-.4h-1.54v2h3.41V8.89H490v4.8h-6.07V9.37H488v2.77h-2.26V10.93h1v-.4h-1.53v2h3.41V8.89h-5.36v4.8h-6.08V9.37h4.13v2.77H479V10.93h1v-.4h-1.54v2h3.41V8.89h-5.36v4.8h-6.08V9.37h4.13v2.77h-2.25V10.93h1v-.4h-1.54v2h3.41V8.89h-5.36v4.8h-6.07V9.37h4.13v2.77h-2.26V10.93h1v-.4H465v2h3.41V8.89h-5.36v4.8H457V9.37h4.13v2.77h-2.26V10.93h1v-.4h-1.53v2h3.41V8.89h-5.36v4.8h-6.08V9.37h4.13v2.77h-2.25V10.93h1v-.4h-1.54v2H455V8.89H449.6v4.8h-6.08V9.37h4.13v2.77H445.4V10.93h1v-.4h-1.54v2h3.41V8.89h-5.36v4.8H436.8V9.37h4.13v2.77h-2.26V10.93h1v-.4h-1.54v2h3.41V8.89h-5.36v4.8h-6.07V9.37h4.13v2.77h-2.26V10.93h1v-.4h-1.53v2h3.4V8.89h-5.36v4.8h-6.07V9.37h4.13v2.77h-2.26V10.93h1v-.4h-1.54v2h3.41V8.89h-5.36v4.8h-6.08V9.37h4.13v2.77h-2.25V10.93h1v-.4h-1.54v2h3.41V8.89H416v4.8h-6.07V9.37H414v2.77h-2.26V10.93h1v-.4h-1.54v2h3.41V8.89h-5.36v4.8h-6.07V9.37h4.13v2.77H405V10.93h1v-.4h-1.53v2h3.4V8.89H402.5v4.8h-6.07V9.37h4.13v2.77H398.3V10.93h1v-.4h-1.53v2h3.41V8.89h-5.36v4.8H389.7V9.37h4.13v2.77h-2.25V10.93h1v-.4H391v2h3.41V8.89h-5.36v4.8H383V9.37h4.14v2.77h-2.26V10.93h1v-.4h-1.54v2h3.41V8.89h-5.36v4.8h-6.07V9.37h4.13v2.77h-2.26V10.93h1v-.4h-1.54v2H381V8.89h-5.36v4.8h-6.07V9.37h4.13v2.77h-2.26V10.93h1v-.4h-1.53v2h3.41V8.89h-5.36v4.8h-6.08V9.37h4.13v2.77h-2.25V10.93h1v-.4h-1.54v2h3.41V8.89h-5.36v4.8h-6.08V9.37h4.14v2.77h-2.26V10.93h1v-.4h-1.54v2h3.41V8.89h-5.36v4.8h-6.07V9.37h4.13v2.77h-2.26V10.93h1v-.4h-1.54v2H354V8.89h-5.36v4.8h-6.07V9.37h4.13v2.77h-2.26V10.93h1v-.4h-1.53v2h3.41V8.89H342v4.8h-6.08V9.37H340v2.77h-2.25V10.93h1v-.4h-1.54v2h3.41V8.89h-5.36v4.8h-6.08V9.37h4.14v2.77H331V10.93h1v-.4h-1.54v2h3.41V8.89H328.5v4.8h-6.07V9.37h4.13v2.77H324.3V10.93h1v-.4h-1.54v2h3.41V8.89h-5.36v4.8H315.7V9.37h4.13v2.77h-2.26V10.93h1v-.4H317v2h3.4V8.89h-5.35v4.8H309V9.37h4.13v2.77h-2.25V10.93h1v-.4h-1.54v2h3.41V8.89h-5.36v4.8h-6.08V9.37h4.13v2.77h-2.25V10.93h1v-.4h-1.54v2H307V8.89h-5.36v4.8h-6.07V9.37h4.13v2.77h-2.26V10.93h1v-.4h-1.54v2h3.41V8.89h-5.36v4.8h-6.07V9.37h4.13v2.77h-2.26V10.93h1v-.4h-1.53v2h3.4V8.89h-5.35v4.8h-6.08V9.37h4.13v2.77h-2.25V10.93h1v-.4h-1.54v2h3.41V8.89h-5.36v4.8h-6.08V9.37h4.13v2.77h-2.25V10.93h1v-.4h-1.54v2H280V8.89h-5.36v4.8h-6.07V9.37h4.13v2.77h-2.26V10.93h1v-.4H269.9v2h3.41V8.89H268v4.8h-6.07V9.37H266v2.77h-2.26V10.93h1v-.4h-1.53v2h3.4V8.89h-5.36v4.8h-6.07V9.37h4.13v2.77H257V10.93h1v-.4h-1.54v2h3.41V8.89H254.5v4.8h-6.08V9.37h4.13v2.77H250.3V10.93h1v-.4h-1.54v2h3.41V8.89h-5.36v4.8h-6.08V9.37h4.14v2.77h-2.26V10.93h1v-.4H243v2h3.41V8.89H241v4.8H235V9.37h4.13v2.77h-2.26V10.93h1v-.4h-1.54v2h3.41V8.89h-5.36v4.8h-6.07V9.37h4.13v2.77h-2.26V10.93h1v-.4h-1.53v2H233V8.89h-5.36v4.8h-6.08V9.37h4.13v2.77h-2.25V10.93h1v-.4h-1.54v2h3.41V8.89h-5.36v4.8h-6.08V9.37h4.14v2.77h-2.26V10.93h1v-.4h-1.54v2h3.41V8.89h-5.36v4.8h-6.07V9.37h4.13v2.77h-2.26V10.93h1v-.4h-1.54v2h3.41V8.89H207.4v4.8h-6.07V9.37h4.13v2.77H203.2V10.93h1v-.4h-1.53v2H206V8.89h-5.36v4.8H194.6V9.37h4.13v2.77h-2.25V10.93h1v-.4H195.9v2h3.41V8.89H194v4.8h-6.08V9.37H192v2.77h-2.26V10.93h1v-.4h-1.54v2h3.41V8.89h-5.36v4.8h-6.07V9.37h4.13v2.77H183V10.93h1v-.4h-1.54v2h3.41V8.89h-5.36v4.8h-6.07V9.37h4.13v2.77h-2.26V10.93h1v-.4h-1.53v2h3.41V8.89h-5.36v4.8h-6.08V9.37h4.13v2.77h-2.25V10.93h1v-.4H169v2h3.41V8.89H167v4.8H161V9.37h4.13v2.77h-2.25V10.93h1v-.4h-1.54v2h3.41V8.89h-5.36v4.8h-6.07V9.37h4.13v2.77h-2.26V10.93h1v-.4h-1.54v2h3.41V8.89h-5.36v4.8h-6.07V9.37h4.13v2.77h-2.26V10.93h1v-.4h-1.53v2h3.4V8.89h-5.35v4.8h-6.08V9.37h4.13v2.77h-2.25V10.93h1v-.4h-1.54v2h3.41V8.89h-5.36v4.8h-6.08V9.37h4.13v2.77h-2.25V10.93h1v-.4h-1.54v2h3.41V8.89H133.4v4.8h-6.07V9.37h4.13v2.77H129.2V10.93h1v-.4h-1.54v2H132V8.89h-5.36v4.8H120.6V9.37h4.13v2.77h-2.26V10.93h1v-.4H121.9v2h3.4V8.89h-5.36v4.8h-6.07V9.37H118v2.77h-2.26V10.93h1v-.4h-1.54v2h3.41V8.89h-5.36v4.8h-6.08V9.37h4.13v2.77H109V10.93h1v-.4h-1.54v2h3.41V8.89h-5.36v4.8h-6.07V9.37h4.13v2.77h-2.26V10.93h1v-.4h-1.54v2h3.41V8.89H99.76v4.8H93.69V9.37h4.13v2.77H95.56V10.93h1v-.4H95v2h3.4V8.89H93v4.8H87V9.37h4.13v2.77H88.83V10.93h1v-.4H88.26v2h3.41V8.89H86.31v4.8H80.23V9.37h4.13v2.77H82.11V10.93h1v-.4H81.53v2h3.41V8.89H79.58v4.8H73.5V9.37h4.14v2.77H75.38V10.93h1v-.4H74.8v2h3.41V8.89H72.85v4.8H66.78V9.37h4.13v2.77H68.65V10.93h1v-.4H68.07v2h3.41V8.89H66.12v4.8H60.05V9.37h4.13v2.77H61.92V10.93h1v-.4H61.35v2h3.41V8.89H59.4v4.8H53.32V9.37h4.13v2.77H55.2V10.93h1v-.4H54.62v2H58V8.89H52.67v4.8H46.59V9.37h4.14v2.77H48.47V10.93h1v-.4H47.89v2H51.3V8.89H45.94v4.8H39.87V9.37H44v2.77H41.74V10.93h1v-.4H41.16v2h3.41V8.89H39.21v4.8H33.14V9.37h4.13v2.77H35V10.93h1v-.4H34.44v2h3.41V8.89H32.49v4.8H26.41V9.37h4.13v2.77H28.29V10.93h1v-.4H27.71v2h3.41V8.89H25.76v4.8H19.68V9.37h4.14v2.77H21.56V10.93h1v-.4H21v2h3.41V8.89H19v4.8H12.3v6.83H7.57V26h3.55V22.5H9.18v1.55h.4v-1h1.19v2.29H8V21.18H12.3v6.16H7.57v5.44h3.55V29.32H9.18v1.56h.4v-1h1.19v2.29H8V28H12.3v6.17H7.57V39.6h3.55V36.14H9.18V37.7h.4v-1h1.19V39H8V34.83H12.3V41H7.57v5.43h3.55V43H9.18v1.56h.4v-1h1.19v2.29H8V41.65H12.3v6.16H7.57v5.44h3.55V49.79H9.18v1.56h.4v-1h1.19v2.28H8V48.47H12.3v6.17H7.57v5.43h3.55V56.61H9.18v1.56h.4v-1h1.19v2.29H8V55.3H12.3v6.16H7.57V66.9h3.55V63.44H9.18V65h.4V64h1.19v2.29H8V62.12H12.3v6.16H7.57v5.44h3.55V70.26H9.18v1.56h.4v-1h1.19v2.29H8V69H12.3v6.16H7.57v5.43h3.55V77.09H9.18v1.55h.4v-1h1.19V80H8V75.77H12.3v6.16H7.57v5.44h3.55V83.91H9.18v1.56h.4v-1h1.19v2.29H8V82.59H12.3v6.16H7.57v5.44h3.55V90.73H9.18v1.56h.4v-1h1.19v2.29H8V89.42H12.3v6.16H7.57V101h3.55V97.56H9.18v1.56h.4v-1h1.19v2.29H8V96.24H12.3v6.16H7.57v5.44h3.55v-3.46H9.18v1.56h.4v-1h1.19v2.28H8v-4.19H12.3v6.17H7.57v5.43h3.55V111.2H9.18v1.56h.4v-1h1.19v2.29H8v-4.19H12.3v6.16H7.57v5.44h3.55V118H9.18v1.56h.4v-1h1.19v2.29H8v-4.19H12.3v6.16H7.57v5.44h3.55v-3.46H9.18v1.56h.4v-1h1.19v2.29H8v-4.19H12.3v6.16H7.57v5.43h3.55v-3.45H9.18v1.56h.4v-1h1.19v2.29H8v-4.19H12.3v6.16H7.57V142h3.55V138.5H9.18v1.56h.4v-1h1.19v2.29H8v-4.19H12.3v6.17H7.57v5.43h3.55v-3.46H9.18v1.56h.4v-1h1.19v2.29H8V144H12.3v6.16H7.57v5.43h3.55v-3.45H9.18v1.56h.4v-1h1.19V155H8v-4.19H12.3V157H7.57v5.44h3.55V159H9.18v1.56h.4v-1h1.19v2.29H8v-4.2H12.3v6.17H7.57v5.43h3.55v-3.46H9.18v1.56h.4v-1h1.19v2.29H8v-4.19H12.3v6.16H7.57v5.44h3.55v-3.46H9.18v1.56h.4v-1h1.19v2.29H8V171.3H12.3v6.16H7.57v5.44h3.55v-3.46H9.18V181h.4v-1h1.19v2.29H8v-4.19H12.3v6.16H7.57v5.43h3.55v-3.45H9.18v1.56h.4v-1h1.19v2.29H8V185H12.3v6.16H7.57v5.44h3.55v-3.46H9.18v1.56h.4v-1h1.19V196H8v-4.19H12.3v6.17H7.57v5.43h3.55v-3.46H9.18v1.56h.4v-1h1.19v2.29H8V198.6H12.3v6.16H7.57v5.44h3.55v-3.46H9.18v1.56h.4v-1h1.19v2.29H8v-4.19H12.3v6.16H7.57V217h3.55v-3.46H9.18v1.56h.4v-1h1.19v2.29H8v-4.19H12.3v6.16H7.57v5.43h3.55v-3.46H9.18v1.56h.4v-1h1.19v2.29H8v-4.19H12.3v6.16H7.57v5.44h3.55v-3.46H9.18v1.56h.4v-1h1.19v2.29H8v-4.19H12.3v6.16H7.57v5.44h3.55V234H9.18v1.56h.4v-1h1.19v2.29H8v-4.19H12.3v6.16H7.57v5.43h3.55v-3.45H9.18v1.56h.4v-1h1.19v2.29H8v-4.19H12.3v6.16H7.57v5.44h3.55v-3.46H9.18v1.56h.4v-1h1.19v2.28H8v-4.19H12.3v6.17H7.57V258h3.55V254.5H9.18v1.56h.4v-1h1.19v2.29H8v-4.19H12.3v6.16H7.57v5.44h3.55v-3.46H9.18v1.56h.4v-1h1.19v2.29H8V260H12.3v6.16H7.57v5.44h3.55v-3.46H9.18v1.56h.4v-1h1.19V271H8v-4.19H12.3V273H7.57v5.43h3.55V275H9.18v1.55h.4v-1h1.19v2.29H8v-4.19H12.3v6.16H7.57v5.44h3.55V281.8H9.18v1.56h.4v-1h1.19v2.29H8v-4.19H12.3v6.16H7.57v5.44h3.55v-3.46H9.18v1.56h.4v-1h1.19v2.29H8v-4.19H12.3v6.16H7.57v5.43h3.55v-3.45H9.18V297h.4v-1h1.19v2.29H8v-4.19H12.3v6.16H7.57v5.44h3.55v-3.46H9.18v1.56h.4v-1h1.19v2.28H8V301H12.3v6.17H7.57v5.43h3.55v-3.46H9.18v1.56h.4v-1h1.19V312H8v-4.19H12.3v6.16H7.57v5.44h3.55v-3.46H9.18v1.56h.4v-1h1.19v2.29H8V314.6H12.3v6.16H7.57v5.44h3.55v-3.46H9.18v1.56h.4v-1h1.19v2.29H8v-4.2H12.3v6.17H7.57V333h3.55v-3.45H9.18v1.55h.4v-1h1.19v2.29H8v-4.19H12.3v6.16H7.57v5.44h3.55v-3.46H9.18V338h.4v-1h1.19v2.29H8v-4.19H12.3v6.16H7.57v5.44h3.55v-3.46H9.18v1.56h.4v-1h1.19v2.29H8V341.9H12.3v6.16H7.57v5.43h3.55V350H9.18v1.56h.4v-1h1.19v2.29H8v-4.19H12.3v6.16H7.57v5.44h3.55v-3.46H9.18v1.56h.4v-1h1.19v2.28H8v-4.19H12.3v6.17H7.57v5.43h3.55v-3.46H9.18v1.56h.4v-1h1.19v2.29H8v-4.19H12.3v6.16H7.57V374h3.55v-3.46H9.18v1.56h.4v-1h1.19v2.29H8v-4.19H12.3v6.16H7.57v5.44h3.55v-3.46H9.18v1.56h.4v-1h1.19v2.29H8V376H12.3v6.16H7.57v5.43h3.55v-3.45H9.18v1.55h.4v-1h1.19V387H8v-4.19H12.3V389H7.57v5.44h3.55V391H9.18v1.56h.4v-1h1.19v2.29H8v-4.19H12.3v6.16H7.57v5.44h3.55V397.8H9.18v1.56h.4v-1h1.19v2.29H8v-4.19H12.3v6.16H7.57v5.43h3.55v-3.45H9.18v1.56h.4v-1h1.19v2.29H8v-4.19H12.3v5.8H18v4.32H13.89v-2.68h2.26v1.12h-1v.49h1.54v-2.05H13.31v3.6h5.36v-4.8h6.08v4.32H20.62v-2.68h2.26v1.12h-1v.49h1.54v-2.05H20v3.6H25.4v-4.8h6.08v4.32H27.35v-2.68h2.26v1.12h-1v.49h1.53v-2.05H26.77v3.6h5.36v-4.8H38.2v4.32H34.08v-2.68h2.25v1.12h-1v.49h1.54v-2.05H33.5v3.6h5.35v-4.8h6.08v4.32H40.81v-2.68h2.25v1.12h-1v.49h1.54v-2.05H40.23v3.6h5.35v-4.8h6.08v4.32H47.53v-2.68h2.26v1.12h-1v.49h1.54v-2.05H47v3.6h5.36v-4.8h6.08v4.32H54.26v-2.68h2.26v1.12h-1v.49h1.53v-2.05H53.68v3.6H59v-4.8h6.07v4.32H61v-2.68h2.25v1.12h-1v.49h1.54v-2.05H60.41v3.6h5.35v-4.8h6.08v4.32H67.72v-2.68H70v1.12H69v.49h1.54v-2.05H67.14v3.6h5.35v-4.8h6.08v4.32H74.44v-2.68H76.7v1.12h-1v.49h1.54v-2.05H73.86v3.6h5.36v-4.8H85.3v4.32H81.17v-2.68h2.26v1.12h-1v.49H84v-2.05H80.59v3.6H86v-4.8H92v4.32H87.9v-2.68h2.25v1.12h-1v.49h1.54v-2.05H87.32v3.6h5.36v-4.8h6.07v4.32H94.63v-2.68h2.25v1.12h-1v.49h1.54v-2.05H94.05v3.6H99.4v-4.8h6.08v4.32h-4.13v-2.68h2.26v1.12h-1v.49h1.54v-2.05h-3.42v3.6h5.36v-4.8h6.08v4.32h-4.13v-2.68h2.26v1.12h-1v.49h1.53v-2.05H107.5v3.6h5.36v-4.8h6.08v4.32h-4.13v-2.68h2.25v1.12h-1v.49h1.54v-2.05h-3.41v3.6h5.36v-4.8h6.07v4.32h-4.12v-2.68h2.25v1.12h-1v.49h1.54v-2.05H121v3.6h5.35v-4.8h6.08v4.32h-4.13v-2.68h2.26v1.12h-1v.49h1.54v-2.05h-3.42v3.6H133v-4.8h6.08v4.32H135v-2.68h2.26v1.12h-1v.49h1.54v-2.05h-3.42v3.6h5.36v-4.8h6.08v4.32h-4.13v-2.68H144v1.12h-1v.49h1.54v-2.05h-3.41v3.6h5.36v-4.8h6.07v4.32h-4.12v-2.68h2.25v1.12h-1v.49h1.54v-2.05h-3.41v3.6h5.35v-4.8h6.08v4.32h-4.13v-2.68h2.26v1.12h-1v.49H158v-2.05h-3.42v3.6H160v-4.8H166v4.32H161.9v-2.68h2.26v1.12h-1v.49h1.54v-2.05h-3.42v3.6h5.36v-4.8h6.08v4.32h-4.13v-2.68h2.25v1.12h-1v.49h1.54v-2.05h-3.41v3.6h5.36v-4.8h6.07v4.32h-4.12v-2.68h2.25v1.12h-1v.49h1.54v-2.05h-3.41v3.6h5.35v-4.8h6.08v4.32h-4.13v-2.68h2.26v1.12h-1v.49h1.54v-2.05h-3.41v3.6h5.35v-4.8h6.08v4.32h-4.13v-2.68h2.26v1.12h-1v.49h1.54v-2.05h-3.42v3.6h5.36v-4.8h6.08v4.32h-4.13v-2.68h2.26v1.12h-1v.49h1.53v-2.05H195v3.6h5.36v-4.8h6.07v4.32h-4.12v-2.68h2.25v1.12h-1v.49h1.54v-2.05h-3.41v3.6h5.36v-4.8h6.07v4.32H209v-2.68h2.25v1.12h-1v.49h1.54v-2.05h-3.41v3.6h5.35v-4.8h6.08v4.32h-4.13v-2.68H218v1.12h-1v.49h1.54v-2.05h-3.42v3.6h5.36v-4.8h6.08v4.32h-4.13v-2.68h2.26v1.12h-1v.49h1.53v-2.05h-3.41v3.6h5.36v-4.8h6.08v4.32h-4.13v-2.68h2.25v1.12h-1v.49H232v-2.05H228.6v3.6H234v-4.8H240v4.32h-4.12v-2.68h2.25v1.12h-1v.49h1.54v-2.05h-3.41v3.6h5.35v-4.8h6.08v4.32h-4.13v-2.68h2.26v1.12h-1v.49h1.54v-2.05h-3.42v3.6h5.36v-4.8h6.08v4.32h-4.13v-2.68h2.26v1.12h-1v.49h1.53v-2.05h-3.41v3.6h5.36v-4.8h6.08v4.32h-4.13v-2.68h2.25v1.12h-1v.49h1.54v-2.05h-3.41v3.6h5.36v-4.8h6.07v4.32h-4.12v-2.68h2.25v1.12h-1v.49h1.54v-2.05h-3.41v3.6h5.35v-4.8h6.08v4.32h-4.13v-2.68h2.26v1.12h-1v.49h1.54v-2.05H269v3.6h5.36v-4.8h6.08v4.32h-4.13v-2.68h2.26v1.12h-1v.49h1.54v-2.05h-3.42v3.6h5.36v-4.8h6.08v4.32H283v-2.68h2.25v1.12h-1v.49h1.54v-2.05h-3.41v3.6h5.36v-4.8h6.07v4.32h-4.12v-2.68H292v1.12h-1v.49h1.54v-2.05h-3.41v3.6h5.35v-4.8h6.08v4.32h-4.13v-2.68h2.26v1.12h-1v.49h1.54v-2.05h-3.42v3.6h5.36v-4.8h6.08v4.32h-4.13v-2.68h2.26v1.12h-1v.49H306v-2.05H302.6v3.6H308v-4.8H314v4.32h-4.13v-2.68h2.25v1.12h-1v.49h1.54v-2.05h-3.41v3.6h5.36v-4.8h6.07v4.32h-4.12v-2.68h2.25v1.12h-1v.49h1.54v-2.05h-3.41v3.6h5.35v-4.8h6.08v4.32h-4.13v-2.68h2.26v1.12h-1v.49h1.54v-2.05h-3.42v3.6h5.36v-4.8h6.08v4.32h-4.13v-2.68h2.26v1.12h-1v.49h1.54v-2.05h-3.42v3.6h5.36v-4.8H341v4.32h-4.13v-2.68h2.25v1.12h-1v.49h1.54v-2.05h-3.41v3.6h5.36v-4.8h6.07v4.32h-4.12v-2.68h2.25v1.12h-1v.49h1.54v-2.05H343v3.6h5.36v-4.8h6.07v4.32h-4.12v-2.68h2.25v1.12h-1v.49h1.54v-2.05H349.7v3.6h5.35v-4.8h6.08v4.32H357v-2.68h2.26v1.12h-1v.49h1.54v-2.05h-3.42v3.6h5.36v-4.8h6.08v4.32h-4.13v-2.68H366v1.12h-1v.49h1.53v-2.05h-3.41v3.6h5.36v-4.8h6.07v4.32h-4.12v-2.68h2.25v1.12h-1v.49h1.54v-2.05h-3.41v3.6h5.36v-4.8h6.07v4.32h-4.12v-2.68h2.25v1.12h-1v.49H380v-2.05h-3.41v3.6H382v-4.8H388v4.32h-4.13v-2.68h2.26v1.12h-1v.49h1.54v-2.05h-3.42v3.6h5.36v-4.8h6.08v4.32h-4.13v-2.68h2.26v1.12h-1v.49h1.53v-2.05h-3.41v3.6h5.36v-4.8h6.08v4.32h-4.13v-2.68h2.25v1.12h-1v.49h1.54v-2.05h-3.41v3.6h5.36v-4.8h6.07v4.32H404.1v-2.68h2.25v1.12h-1v.49h1.54v-2.05h-3.41v3.6h5.35v-4.8H415v4.32h-4.13v-2.68h2.26v1.12h-1v.49h1.54v-2.05h-3.42v3.6h5.36v-4.8h6.08v4.32h-4.13v-2.68h2.26v1.12h-1v.49h1.53v-2.05H417v3.6h5.36v-4.8h6.08v4.32h-4.13v-2.68h2.25v1.12h-1v.49h1.54v-2.05H423.7v3.6h5.36v-4.8h6.07v4.32H431v-2.68h2.25v1.12h-1v.49h1.54v-2.05h-3.41v3.6h5.35v-4.8h6.08v4.32h-4.13v-2.68H440v1.12h-1v.49h1.54v-2.05h-3.42v3.6h5.36v-4.8h6.08v4.32h-4.13v-2.68h2.26v1.12h-1v.49h1.54v-2.05h-3.42v3.6h5.36v-4.8h6.08v4.32h-4.13v-2.68h2.25v1.12h-1v.49H454v-2.05h-3.41v3.6H456v-4.8H462v4.32h-4.12v-2.68h2.25v1.12h-1v.49h1.54v-2.05h-3.41v3.6h5.35v-4.8h6.08v4.32h-4.13v-2.68h2.26v1.12h-1v.49h1.54v-2.05h-3.41v3.6h5.35v-4.8h6.08v4.32h-4.13v-2.68h2.26v1.12h-1v.49h1.54v-2.05h-3.42v3.6h5.36v-4.8h6.08v4.32H478.1v-2.68h2.26v1.12h-1v.49h1.54v-2.05h-3.41v3.6h5.36v-4.8H489v4.32h-4.12v-2.68h2.25v1.12h-1v.49h1.54v-2.05h-3.41v3.6h5.35v-4.8h6.08v4.32h-4.13v-2.68h2.26v1.12h-1v.49h1.54v-2.05H491v3.6h5.36v-4.8h6.08v4.32h-4.13v-2.68h2.26v1.12h-1v.49h1.54v-2.05H497.7v3.6h5.36v-4.8h6.08v4.32H505v-2.68h2.26v1.12h-1v.49h1.53v-2.05h-3.41v3.6h5.36v-4.8h6.07v4.32h-4.12v-2.68H514v1.12h-1v.49h1.54v-2.05h-3.41v3.6h5.36v-4.8h6.07v4.32h-4.12v-2.68h2.25v1.12h-1v.49h1.54v-2.05h-3.41v3.6h5.35v-4.8h6.08v4.32h-4.13v-2.68h2.26v1.12h-1v.49H528v-2.05h-3.42v3.6H530v-4.8h6.08v4.32h-4.13v-2.68h2.26v1.12h-1v.49h1.53v-2.05h-3.41v3.6h5.36v-4.8h6.08v4.32h-4.13v-2.68h2.25v1.12h-1v.49h1.54v-2.05h-3.41v3.6h5.36v-4.8h6.07v4.32h-4.12v-2.68h2.25v1.12h-1v.49h1.54v-2.05H544.8v3.6h5.35v-4.8h6.08v4.32H552.1v-2.68h2.26v1.12h-1v.49h1.54v-2.05h-3.42v3.6h5.36v-4.8H563v4.32h-4.13v-2.68h2.26v1.12h-1v.49h1.53v-2.05h-3.41v3.6h5.36v-4.8h6.08v4.32h-4.13v-2.68h2.25v1.12h-1v.49h1.54v-2.05H565v3.6h5.36v-4.8h6.07v4.32h-4.12v-2.68h2.25v1.12h-1v.49h1.54v-2.05h-3.41v3.6h5.35v-4.8h6.08v4.32H579v-2.68h2.26v1.12h-1v.49h1.54v-2.05h-3.42v3.6h5.36v-4.8Zm-570.5-1.06V14.75H582.75v393.3Z"></path>
    <path d="M586.32,409.47h-2.17v4.44h4.38v-4.44Zm1.21,1v2.42h-2.38v-2.42Z"></path>
    <path d="M7.57,409.47v4.44h4.37v-4.44H7.57Zm3.38,1v2.42H8.57v-2.42Z"></path>
    <path d="M589.93,7.48H6.22V415.33H589.93Zm-5.78,406.79h-6.07V410h4.13v2.77H580v-1.21h1v-.4h-1.54v2h3.41v-3.6h-5.36v4.8h-6.07V410h4.13v2.77h-2.26v-1.21h1v-.4h-1.53v2h3.4v-3.6H570.7v4.8h-6.08V410h4.13v2.77h-2.26v-1.21h1v-.4h-1.54v2h3.41v-3.6H564v4.8h-6.08V410H562v2.77h-2.25v-1.21h1v-.4h-1.54v2h3.41v-3.6h-5.36v4.8h-6.08V410h4.14v2.77H553v-1.21h1v-.4h-1.54v2h3.41v-3.6h-5.36v4.8h-6.07V410h4.13v2.77h-2.26v-1.21h1v-.4h-1.54v2h3.41v-3.6h-5.36v4.8h-6.07V410h4.13v2.77h-2.26v-1.21h1v-.4H539v2h3.41v-3.6h-5.36v4.8H531V410h4.13v2.77h-2.25v-1.21h1v-.4h-1.54v2h3.41v-3.6h-5.36v4.8h-6.08V410h4.14v2.77h-2.26v-1.21h1v-.4h-1.54v2H529v-3.6H523.6v4.8h-6.07V410h4.13v2.77H519.4v-1.21h1v-.4h-1.54v2h3.41v-3.6h-5.36v4.8H510.8V410h4.13v2.77h-2.26v-1.21h1v-.4H512.1v2h3.41v-3.6h-5.36v4.8h-6.08V410h4.13v2.77H506v-1.21h1v-.4h-1.54v2h3.41v-3.6h-5.36v4.8h-6.08V410h4.14v2.77h-2.26v-1.21h1v-.4h-1.54v2h3.41v-3.6h-5.36v4.8h-6.07V410h4.13v2.77h-2.26v-1.21h1v-.4h-1.54v2h3.41v-3.6H490v4.8h-6.07V410H488v2.77h-2.26v-1.21h1v-.4h-1.53v2h3.41v-3.6h-5.36v4.8h-6.08V410h4.13v2.77H479v-1.21h1v-.4h-1.54v2h3.41v-3.6h-5.36v4.8h-6.08V410h4.13v2.77h-2.25v-1.21h1v-.4h-1.54v2h3.41v-3.6h-5.36v4.8h-6.07V410h4.13v2.77h-2.26v-1.21h1v-.4H465v2h3.41v-3.6h-5.36v4.8H457V410h4.13v2.77h-2.26v-1.21h1v-.4h-1.53v2h3.41v-3.6h-5.36v4.8h-6.08V410h4.13v2.77h-2.25v-1.21h1v-.4h-1.54v2H455v-3.6H449.6v4.8h-6.08V410h4.13v2.77H445.4v-1.21h1v-.4h-1.54v2h3.41v-3.6h-5.36v4.8H436.8V410h4.13v2.77h-2.26v-1.21h1v-.4h-1.54v2h3.41v-3.6h-5.36v4.8h-6.07V410h4.13v2.77h-2.26v-1.21h1v-.4h-1.53v2h3.4v-3.6h-5.36v4.8h-6.07V410h4.13v2.77h-2.26v-1.21h1v-.4h-1.54v2h3.41v-3.6h-5.36v4.8h-6.08V410h4.13v2.77h-2.25v-1.21h1v-.4h-1.54v2h3.41v-3.6H416v4.8h-6.07V410H414v2.77h-2.26v-1.21h1v-.4h-1.54v2h3.41v-3.6h-5.36v4.8h-6.07V410h4.13v2.77H405v-1.21h1v-.4h-1.53v2h3.4v-3.6H402.5v4.8h-6.07V410h4.13v2.77H398.3v-1.21h1v-.4h-1.53v2h3.41v-3.6h-5.36v4.8H389.7V410h4.13v2.77h-2.25v-1.21h1v-.4H391v2h3.41v-3.6h-5.36v4.8H383V410h4.14v2.77h-2.26v-1.21h1v-.4h-1.54v2h3.41v-3.6h-5.36v4.8h-6.07V410h4.13v2.77h-2.26v-1.21h1v-.4h-1.54v2H381v-3.6h-5.36v4.8h-6.07V410h4.13v2.77h-2.26v-1.21h1v-.4h-1.53v2h3.41v-3.6h-5.36v4.8h-6.08V410h4.13v2.77h-2.25v-1.21h1v-.4h-1.54v2h3.41v-3.6h-5.36v4.8h-6.08V410h4.14v2.77h-2.26v-1.21h1v-.4h-1.54v2h3.41v-3.6h-5.36v4.8h-6.07V410h4.13v2.77h-2.26v-1.21h1v-.4h-1.54v2H354v-3.6h-5.36v4.8h-6.07V410h4.13v2.77h-2.26v-1.21h1v-.4h-1.53v2h3.41v-3.6H342v4.8h-6.08V410H340v2.77h-2.25v-1.21h1v-.4h-1.54v2h3.41v-3.6h-5.36v4.8h-6.08V410h4.14v2.77H331v-1.21h1v-.4h-1.54v2h3.41v-3.6H328.5v4.8h-6.07V410h4.13v2.77H324.3v-1.21h1v-.4h-1.54v2h3.41v-3.6h-5.36v4.8H315.7V410h4.13v2.77h-2.26v-1.21h1v-.4H317v2h3.4v-3.6h-5.35v4.8H309V410h4.13v2.77h-2.25v-1.21h1v-.4h-1.54v2h3.41v-3.6h-5.36v4.8h-6.08V410h4.13v2.77h-2.25v-1.21h1v-.4h-1.54v2H307v-3.6h-5.36v4.8h-6.07V410h4.13v2.77h-2.26v-1.21h1v-.4h-1.54v2h3.41v-3.6h-5.36v4.8h-6.07V410h4.13v2.77h-2.26v-1.21h1v-.4h-1.53v2h3.4v-3.6h-5.35v4.8h-6.08V410h4.13v2.77h-2.25v-1.21h1v-.4h-1.54v2h3.41v-3.6h-5.36v4.8h-6.08V410h4.13v2.77h-2.25v-1.21h1v-.4h-1.54v2H280v-3.6h-5.36v4.8h-6.07V410h4.13v2.77h-2.26v-1.21h1v-.4H269.9v2h3.41v-3.6H268v4.8h-6.07V410H266v2.77h-2.26v-1.21h1v-.4h-1.53v2h3.4v-3.6h-5.36v4.8h-6.07V410h4.13v2.77H257v-1.21h1v-.4h-1.54v2h3.41v-3.6H254.5v4.8h-6.08V410h4.13v2.77H250.3v-1.21h1v-.4h-1.54v2h3.41v-3.6h-5.36v4.8h-6.08V410h4.14v2.77h-2.26v-1.21h1v-.4H243v2h3.41v-3.6H241v4.8H235V410h4.13v2.77h-2.26v-1.21h1v-.4h-1.54v2h3.41v-3.6h-5.36v4.8h-6.07V410h4.13v2.77h-2.26v-1.21h1v-.4h-1.53v2H233v-3.6h-5.36v4.8h-6.08V410h4.13v2.77h-2.25v-1.21h1v-.4h-1.54v2h3.41v-3.6h-5.36v4.8h-6.08V410h4.14v2.77h-2.26v-1.21h1v-.4h-1.54v2h3.41v-3.6h-5.36v4.8h-6.07V410h4.13v2.77h-2.26v-1.21h1v-.4h-1.54v2h3.41v-3.6H207.4v4.8h-6.07V410h4.13v2.77H203.2v-1.21h1v-.4h-1.53v2H206v-3.6h-5.36v4.8H194.6V410h4.13v2.77h-2.25v-1.21h1v-.4H195.9v2h3.41v-3.6H194v4.8h-6.08V410H192v2.77h-2.26v-1.21h1v-.4h-1.54v2h3.41v-3.6h-5.36v4.8h-6.07V410h4.13v2.77H183v-1.21h1v-.4h-1.54v2h3.41v-3.6h-5.36v4.8h-6.07V410h4.13v2.77h-2.26v-1.21h1v-.4h-1.53v2h3.41v-3.6h-5.36v4.8h-6.08V410h4.13v2.77h-2.25v-1.21h1v-.4H169v2h3.41v-3.6H167v4.8H161V410h4.13v2.77h-2.25v-1.21h1v-.4h-1.54v2h3.41v-3.6h-5.36v4.8h-6.07V410h4.13v2.77h-2.26v-1.21h1v-.4h-1.54v2h3.41v-3.6h-5.36v4.8h-6.07V410h4.13v2.77h-2.26v-1.21h1v-.4h-1.53v2h3.4v-3.6h-5.35v4.8h-6.08V410h4.13v2.77h-2.25v-1.21h1v-.4h-1.54v2h3.41v-3.6h-5.36v4.8h-6.08V410h4.13v2.77h-2.25v-1.21h1v-.4h-1.54v2h3.41v-3.6H133.4v4.8h-6.07V410h4.13v2.77H129.2v-1.21h1v-.4h-1.54v2H132v-3.6h-5.36v4.8H120.6V410h4.13v2.77h-2.26v-1.21h1v-.4H121.9v2h3.4v-3.6h-5.36v4.8h-6.07V410H118v2.77h-2.26v-1.21h1v-.4h-1.54v2h3.41v-3.6h-5.36v4.8h-6.08V410h4.13v2.77H109v-1.21h1v-.4h-1.54v2h3.41v-3.6h-5.36v4.8h-6.07V410h4.13v2.77h-2.26v-1.21h1v-.4h-1.54v2h3.41v-3.6H99.76v4.8H93.69V410h4.13v2.77H95.56v-1.21h1v-.4H95v2h3.4v-3.6H93v4.8H87V410h4.13v2.77H88.83v-1.21h1v-.4H88.26v2h3.41v-3.6H86.31v4.8H80.23V410h4.13v2.77H82.11v-1.21h1v-.4H81.53v2h3.41v-3.6H79.58v4.8H73.5V410h4.14v2.77H75.38v-1.21h1v-.4H74.8v2h3.41v-3.6H72.85v4.8H66.78V410h4.13v2.77H68.65v-1.21h1v-.4H68.07v2h3.41v-3.6H66.12v4.8H60.05V410h4.13v2.77H61.92v-1.21h1v-.4H61.35v2h3.41v-3.6H59.4v4.8H53.32V410h4.13v2.77H55.2v-1.21h1v-.4H54.62v2H58v-3.6H52.67v4.8H46.59V410h4.14v2.77H48.47v-1.21h1v-.4H47.89v2H51.3v-3.6H45.94v4.8H39.87V410H44v2.77H41.74v-1.21h1v-.4H41.16v2h3.41v-3.6H39.21v4.8H33.14V410h4.13v2.77H35v-1.21h1v-.4H34.44v2h3.41v-3.6H32.49v4.8H26.41V410h4.13v2.77H28.29v-1.21h1v-.4H27.71v2h3.41v-3.6H25.76v4.8H19.68V410h4.14v2.77H21.56v-1.21h1v-.4H21v2h3.41v-3.6H19v4.8H13V410h4.13v2.77H14.83v-1.21h1v-.4H14.25v2h3.41v-3.6H12.3v4.8H7.21v-5.16h4.73v-5.44H8.4v3.47h2v-1.56H9.94v1H8.83v-2.29h2.65v4.19H7.21v-6.17h4.73v-5.43H8.4v3.46h2v-1.56H9.94v1H8.83v-2.29h2.65v4.18H7.21v-6.16h4.73V390H8.4v3.46h2v-1.56H9.94v1H8.83v-2.28h2.65v4.18H7.21v-6.16h4.73V383.2H8.4v3.47h2V385.1H9.94v1H8.83v-2.29h2.65V388H7.21v-6.17h4.73v-5.43H8.4v3.46h2v-1.56H9.94v1H8.83V377h2.65v4.18H7.21V375h4.73v-5.43H8.4V373h2v-1.56H9.94v1H8.83v-2.29h2.65v4.19H7.21v-6.16h4.73v-5.44H8.4v3.46h2v-1.56H9.94v1H8.83v-2.29h2.65v4.19H7.21v-6.17h4.73v-5.43H8.4v3.46h2v-1.56H9.94v1H8.83V356.5h2.65v4.18H7.21v-6.16h4.73v-5.44H8.4v3.47h2V351H9.94v1H8.83v-2.29h2.65v4.19H7.21v-6.17h4.73v-5.43H8.4v3.46h2v-1.56H9.94v1H8.83v-2.29h2.65V347H7.21v-6.16h4.73v-5.43H8.4v3.46h2v-1.56H9.94v1H8.83V336h2.65v4.19H7.21v-6.16h4.73v-5.44H8.4v3.47h2v-1.57H9.94v1H8.83V329.2h2.65v4.19H7.21v-6.17h4.73v-5.43H8.4v3.46h2v-1.56H9.94v1H8.83v-2.29h2.65v4.18H7.21V320.4h4.73V315H8.4v3.46h2v-1.56H9.94v1H8.83v-2.29h2.65v4.19H7.21v-6.16h4.73v-5.44H8.4v3.46h2V310H9.94v1H8.83v-2.29h2.65v4.19H7.21v-6.17h4.73v-5.43H8.4v3.46h2v-1.56H9.94v1H8.83v-2.28h2.65v4.18H7.21v-6.16h4.73v-5.44H8.4V298h2V296.4H9.94v1H8.83v-2.29h2.65v4.19H7.21V293.1h4.73v-5.43H8.4v3.46h2v-1.56H9.94v1H8.83v-2.29h2.65v4.18H7.21v-6.16h4.73v-5.43H8.4v3.46h2v-1.56H9.94v1H8.83v-2.29h2.65v4.19H7.21v-6.16h4.73V274H8.4v3.47h2v-1.57H9.94v1H8.83v-2.29h2.65v4.19H7.21v-6.17h4.73V267.2H8.4v3.46h2V269.1H9.94v1H8.83v-2.28h2.65V272H7.21v-6.16h4.73v-5.43H8.4v3.46h2v-1.56H9.94v1H8.83V261h2.65v4.19H7.21V259h4.73v-5.43H8.4V257h2v-1.56H9.94v1H8.83v-2.29h2.65v4.19H7.21v-6.17h4.73v-5.43H8.4v3.46h2v-1.56H9.94v1H8.83v-2.28h2.65v4.18H7.21v-6.16h4.73V239.9H8.4v3.47h2v-1.56H9.94v1H8.83v-2.29h2.65v4.19H7.21v-6.17h4.73v-5.43H8.4v3.46h2V235H9.94v1H8.83v-2.29h2.65v4.18H7.21v-6.16h4.73v-5.43H8.4v3.46h2v-1.56H9.94v1H8.83v-2.29h2.65V231H7.21v-6.16h4.73v-5.44H8.4v3.46h2v-1.56H9.94v1H8.83V220h2.65v4.19H7.21V218h4.73v-5.43H8.4v3.46h2v-1.56H9.94v1H8.83V213.2h2.65v4.18H7.21v-6.16h4.73v-5.43H8.4v3.46h2v-1.56H9.94v1H8.83v-2.29h2.65v4.19H7.21V204.4h4.73V199H8.4v3.46h2v-1.56H9.94v1H8.83v-2.29h2.65v4.19H7.21v-6.17h4.73v-5.43H8.4v3.46h2V194H9.94v1H8.83v-2.28h2.65v4.18H7.21v-6.16h4.73v-5.44H8.4v3.47h2v-1.56H9.94v1H8.83V185.9h2.65v4.19H7.21v-6.17h4.73v-5.43H8.4V182h2v-1.56H9.94v1H8.83v-2.29h2.65v4.18H7.21V177.1h4.73v-5.43H8.4v3.46h2v-1.56H9.94v1H8.83v-2.29h2.65v4.19H7.21v-6.16h4.73v-5.44H8.4v3.46h2v-1.56H9.94v1H8.83v-2.29h2.65v4.19H7.21v-6.17h4.73V158H8.4v3.46h2v-1.56H9.94v1H8.83v-2.28h2.65v4.18H7.21v-6.16h4.73v-5.44H8.4v3.47h2V153.1H9.94v1H8.83v-2.29h2.65V156H7.21v-6.16h4.73v-5.44H8.4v3.46h2v-1.56H9.94v1H8.83V145h2.65v4.18H7.21V143h4.73v-5.43H8.4V141h2v-1.56H9.94v1H8.83v-2.28h2.65v4.18H7.21v-6.16h4.73v-5.44H8.4v3.47h2v-1.57H9.94v1H8.83v-2.29h2.65v4.19H7.21v-6.17h4.73V123.9H8.4v3.46h2V125.8H9.94v1H8.83v-2.29h2.65v4.18H7.21v-6.16h4.73v-5.43H8.4v3.46h2V119H9.94v1H8.83v-2.29h2.65v4.19H7.21v-6.16h4.73v-5.44H8.4v3.46h2v-1.56H9.94v1H8.83v-2.29h2.65V115H7.21v-6.17h4.73v-5.43H8.4v3.46h2v-1.56H9.94v1H8.83V104h2.65v4.18H7.21V102h4.73V96.61H8.4v3.46h2V98.51H9.94v1H8.83V97.19h2.65v4.19H7.21V95.21h4.73V89.78H8.4v3.46h2V91.68H9.94v1H8.83V90.37h2.65v4.19H7.21V88.39h4.73V83H8.4v3.46h2V84.86H9.94v1H8.83V83.55h2.65v4.18H7.21V81.57h4.73V76.13H8.4V79.6h2V78H9.94v1H8.83V76.72h2.65v4.19H7.21V74.74h4.73V69.31H8.4v3.46h2V71.21H9.94v1H8.83V69.9h2.65v4.18H7.21V67.92h4.73V62.49H8.4V66h2V64.39H9.94v1H8.83V63.07h2.65v4.19H7.21V61.1h4.73V55.66H8.4v3.46h2V57.56H9.94v1H8.83V56.25h2.65v4.19H7.21V54.27h4.73V48.84H8.4V52.3h2V50.74H9.94v1H8.83V49.43h2.65v4.18H7.21V47.45h4.73V42H8.4v3.47h2V43.92H9.94v1H8.83V42.6h2.65v4.19H7.21V40.62h4.73V35.19H8.4v3.46h2V37.09H9.94v1H8.83V35.78h2.65V40H7.21V33.8h4.73V28.37H8.4v3.46h2V30.27H9.94v1H8.83V29h2.65v4.19H7.21V27h4.73V21.54H8.4V25h2V23.44H9.94v1H8.83V22.13h2.65v4.19H7.21V20.15h4.73V14.72H8.4v3.46h2V16.62H9.94v1H8.83V15.31h2.65v4.18H7.21v-11H18v4.32H13.89V10.17h2.26v1.12h-1v.49h1.54v-2H13.31v3.6h5.36V8.53h6.08v4.32H20.62V10.17h2.26v1.12h-1v.49h1.54v-2H20v3.6H25.4V8.53h6.08v4.32H27.35V10.17h2.26v1.12h-1v.49h1.53v-2H26.77v3.6h5.36V8.53H38.2v4.32H34.08V10.17h2.25v1.12h-1v.49h1.54v-2H33.5v3.6h5.35V8.53h6.08v4.32H40.81V10.17h2.25v1.12h-1v.49h1.54v-2H40.23v3.6h5.35V8.53h6.08v4.32H47.53V10.17h2.26v1.12h-1v.49h1.54v-2H47v3.6h5.36V8.53h6.08v4.32H54.26V10.17h2.26v1.12h-1v.49h1.53v-2H53.68v3.6H59V8.53h6.07v4.32H61V10.17h2.25v1.12h-1v.49h1.54v-2H60.41v3.6h5.35V8.53h6.08v4.32H67.72V10.17H70v1.12H69v.49h1.54v-2H67.14v3.6h5.35V8.53h6.08v4.32H74.44V10.17H76.7v1.12h-1v.49h1.54v-2H73.86v3.6h5.36V8.53H85.3v4.32H81.17V10.17h2.26v1.12h-1v.49H84v-2H80.59v3.6H86V8.53H92v4.32H87.9V10.17h2.25v1.12h-1v.49h1.54v-2H87.32v3.6h5.36V8.53h6.07v4.32H94.63V10.17h2.25v1.12h-1v.49h1.54v-2H94.05v3.6H99.4V8.53h6.08v4.32h-4.13V10.17h2.26v1.12h-1v.49h1.54v-2h-3.42v3.6h5.36V8.53h6.08v4.32h-4.13V10.17h2.26v1.12h-1v.49h1.53v-2H107.5v3.6h5.36V8.53h6.08v4.32h-4.13V10.17h2.25v1.12h-1v.49h1.54v-2h-3.41v3.6h5.36V8.53h6.07v4.32h-4.12V10.17h2.25v1.12h-1v.49h1.54v-2H121v3.6h5.35V8.53h6.08v4.32h-4.13V10.17h2.26v1.12h-1v.49h1.54v-2h-3.42v3.6H133V8.53h6.08v4.32H135V10.17h2.26v1.12h-1v.49h1.54v-2h-3.42v3.6h5.36V8.53h6.08v4.32h-4.13V10.17H144v1.12h-1v.49h1.54v-2h-3.41v3.6h5.36V8.53h6.07v4.32h-4.12V10.17h2.25v1.12h-1v.49h1.54v-2h-3.41v3.6h5.35V8.53h6.08v4.32h-4.13V10.17h2.26v1.12h-1v.49H158v-2h-3.42v3.6H160V8.53H166v4.32H161.9V10.17h2.26v1.12h-1v.49h1.54v-2h-3.42v3.6h5.36V8.53h6.08v4.32h-4.13V10.17h2.25v1.12h-1v.49h1.54v-2h-3.41v3.6h5.36V8.53h6.07v4.32h-4.12V10.17h2.25v1.12h-1v.49h1.54v-2h-3.41v3.6h5.35V8.53h6.08v4.32h-4.13V10.17h2.26v1.12h-1v.49h1.54v-2h-3.41v3.6h5.35V8.53h6.08v4.32h-4.13V10.17h2.26v1.12h-1v.49h1.54v-2h-3.42v3.6h5.36V8.53h6.08v4.32h-4.13V10.17h2.26v1.12h-1v.49h1.53v-2H195v3.6h5.36V8.53h6.07v4.32h-4.12V10.17h2.25v1.12h-1v.49h1.54v-2h-3.41v3.6h5.36V8.53h6.07v4.32H209V10.17h2.25v1.12h-1v.49h1.54v-2h-3.41v3.6h5.35V8.53h6.08v4.32h-4.13V10.17H218v1.12h-1v.49h1.54v-2h-3.42v3.6h5.36V8.53h6.08v4.32h-4.13V10.17h2.26v1.12h-1v.49h1.53v-2h-3.41v3.6h5.36V8.53h6.08v4.32h-4.13V10.17h2.25v1.12h-1v.49H232v-2H228.6v3.6H234V8.53H240v4.32h-4.12V10.17h2.25v1.12h-1v.49h1.54v-2h-3.41v3.6h5.35V8.53h6.08v4.32h-4.13V10.17h2.26v1.12h-1v.49h1.54v-2h-3.42v3.6h5.36V8.53h6.08v4.32h-4.13V10.17h2.26v1.12h-1v.49h1.53v-2h-3.41v3.6h5.36V8.53h6.08v4.32h-4.13V10.17h2.25v1.12h-1v.49h1.54v-2h-3.41v3.6h5.36V8.53h6.07v4.32h-4.12V10.17h2.25v1.12h-1v.49h1.54v-2h-3.41v3.6h5.35V8.53h6.08v4.32h-4.13V10.17h2.26v1.12h-1v.49h1.54v-2H269v3.6h5.36V8.53h6.08v4.32h-4.13V10.17h2.26v1.12h-1v.49h1.54v-2h-3.42v3.6h5.36V8.53h6.08v4.32H283V10.17h2.25v1.12h-1v.49h1.54v-2h-3.41v3.6h5.36V8.53h6.07v4.32h-4.12V10.17H292v1.12h-1v.49h1.54v-2h-3.41v3.6h5.35V8.53h6.08v4.32h-4.13V10.17h2.26v1.12h-1v.49h1.54v-2h-3.42v3.6h5.36V8.53h6.08v4.32h-4.13V10.17h2.26v1.12h-1v.49H306v-2H302.6v3.6H308V8.53H314v4.32h-4.13V10.17h2.25v1.12h-1v.49h1.54v-2h-3.41v3.6h5.36V8.53h6.07v4.32h-4.12V10.17h2.25v1.12h-1v.49h1.54v-2h-3.41v3.6h5.35V8.53h6.08v4.32h-4.13V10.17h2.26v1.12h-1v.49h1.54v-2h-3.42v3.6h5.36V8.53h6.08v4.32h-4.13V10.17h2.26v1.12h-1v.49h1.54v-2h-3.42v3.6h5.36V8.53H341v4.32h-4.13V10.17h2.25v1.12h-1v.49h1.54v-2h-3.41v3.6h5.36V8.53h6.07v4.32h-4.12V10.17h2.25v1.12h-1v.49h1.54v-2H343v3.6h5.36V8.53h6.07v4.32h-4.12V10.17h2.25v1.12h-1v.49h1.54v-2H349.7v3.6h5.35V8.53h6.08v4.32H357V10.17h2.26v1.12h-1v.49h1.54v-2h-3.42v3.6h5.36V8.53h6.08v4.32h-4.13V10.17H366v1.12h-1v.49h1.53v-2h-3.41v3.6h5.36V8.53h6.07v4.32h-4.12V10.17h2.25v1.12h-1v.49h1.54v-2h-3.41v3.6h5.36V8.53h6.07v4.32h-4.12V10.17h2.25v1.12h-1v.49H380v-2h-3.41v3.6H382V8.53H388v4.32h-4.13V10.17h2.26v1.12h-1v.49h1.54v-2h-3.42v3.6h5.36V8.53h6.08v4.32h-4.13V10.17h2.26v1.12h-1v.49h1.53v-2h-3.41v3.6h5.36V8.53h6.08v4.32h-4.13V10.17h2.25v1.12h-1v.49h1.54v-2h-3.41v3.6h5.36V8.53h6.07v4.32H404.1V10.17h2.25v1.12h-1v.49h1.54v-2h-3.41v3.6h5.35V8.53H415v4.32h-4.13V10.17h2.26v1.12h-1v.49h1.54v-2h-3.42v3.6h5.36V8.53h6.08v4.32h-4.13V10.17h2.26v1.12h-1v.49h1.53v-2H417v3.6h5.36V8.53h6.08v4.32h-4.13V10.17h2.25v1.12h-1v.49h1.54v-2H423.7v3.6h5.36V8.53h6.07v4.32H431V10.17h2.25v1.12h-1v.49h1.54v-2h-3.41v3.6h5.35V8.53h6.08v4.32h-4.13V10.17H440v1.12h-1v.49h1.54v-2h-3.42v3.6h5.36V8.53h6.08v4.32h-4.13V10.17h2.26v1.12h-1v.49h1.54v-2h-3.42v3.6h5.36V8.53h6.08v4.32h-4.13V10.17h2.25v1.12h-1v.49H454v-2h-3.41v3.6H456V8.53H462v4.32h-4.12V10.17h2.25v1.12h-1v.49h1.54v-2h-3.41v3.6h5.35V8.53h6.08v4.32h-4.13V10.17h2.26v1.12h-1v.49h1.54v-2h-3.41v3.6h5.35V8.53h6.08v4.32h-4.13V10.17h2.26v1.12h-1v.49h1.54v-2h-3.42v3.6h5.36V8.53h6.08v4.32H478.1V10.17h2.26v1.12h-1v.49h1.54v-2h-3.41v3.6h5.36V8.53H489v4.32h-4.12V10.17h2.25v1.12h-1v.49h1.54v-2h-3.41v3.6h5.35V8.53h6.08v4.32h-4.13V10.17h2.26v1.12h-1v.49h1.54v-2H491v3.6h5.36V8.53h6.08v4.32h-4.13V10.17h2.26v1.12h-1v.49h1.54v-2H497.7v3.6h5.36V8.53h6.08v4.32H505V10.17h2.26v1.12h-1v.49h1.53v-2h-3.41v3.6h5.36V8.53h6.07v4.32h-4.12V10.17H514v1.12h-1v.49h1.54v-2h-3.41v3.6h5.36V8.53h6.07v4.32h-4.12V10.17h2.25v1.12h-1v.49h1.54v-2h-3.41v3.6h5.35V8.53h6.08v4.32h-4.13V10.17h2.26v1.12h-1v.49H528v-2h-3.42v3.6H530V8.53h6.08v4.32h-4.13V10.17h2.26v1.12h-1v.49h1.53v-2h-3.41v3.6h5.36V8.53h6.08v4.32h-4.13V10.17h2.25v1.12h-1v.49h1.54v-2h-3.41v3.6h5.36V8.53h6.07v4.32h-4.12V10.17h2.25v1.12h-1v.49h1.54v-2H544.8v3.6h5.35V8.53h6.08v4.32H552.1V10.17h2.26v1.12h-1v.49h1.54v-2h-3.42v3.6h5.36V8.53H563v4.32h-4.13V10.17h2.26v1.12h-1v.49h1.53v-2h-3.41v3.6h5.36V8.53h6.08v4.32h-4.13V10.17h2.25v1.12h-1v.49h1.54v-2H565v3.6h5.36V8.53h6.07v4.32h-4.12V10.17h2.25v1.12h-1v.49h1.54v-2h-3.41v3.6h5.35V8.53h11.82v12h-4.73V26h3.55V22.5h-1.93v1.55h.39v-1h1.19v2.29h-2.73V21.18h4.26v6.16h-4.73v5.44h3.55V29.32h-1.93v1.56h.39v-1h1.19v2.29h-2.73V28h4.26v6.17h-4.73V39.6h3.55V36.14h-1.93V37.7h.39v-1h1.19V39h-2.73V34.83h4.26V41h-4.73v5.43h3.55V43h-1.93v1.56h.39v-1h1.19v2.29h-2.73V41.65h4.26v6.16h-4.73v5.44h3.55V49.79h-1.93v1.56h.39v-1h1.19v2.28h-2.73V48.47h4.26v6.17h-4.73v5.43h3.55V56.61h-1.93v1.56h.39v-1h1.19v2.29h-2.73V55.3h4.26v6.16h-4.73V66.9h3.55V63.44h-1.93V65h.39V64h1.19v2.29h-2.73V62.12h4.26v6.16h-4.73v5.44h3.55V70.26h-1.93v1.56h.39v-1h1.19v2.29h-2.73V69h4.26v6.16h-4.73v5.43h3.55V77.09h-1.93v1.55h.39v-1h1.19V80h-2.73V75.77h4.26v6.16h-4.73v5.44h3.55V83.91h-1.93v1.56h.39v-1h1.19v2.29h-2.73V82.59h4.26v6.16h-4.73v5.44h3.55V90.73h-1.93v1.56h.39v-1h1.19v2.29h-2.73V89.42h4.26v6.16h-4.73V101h3.55V97.56h-1.93v1.56h.39v-1h1.19v2.29h-2.73V96.24h4.26v6.16h-4.73v5.44h3.55v-3.46h-1.93v1.56h.39v-1h1.19v2.28h-2.73v-4.19h4.26v6.17h-4.73v5.43h3.55V111.2h-1.93v1.56h.39v-1h1.19v2.29h-2.73v-4.19h4.26v6.16h-4.73v5.44h3.55V118h-1.93v1.56h.39v-1h1.19v2.29h-2.73v-4.19h4.26v6.16h-4.73v5.44h3.55v-3.46h-1.93v1.56h.39v-1h1.19v2.29h-2.73v-4.19h4.26v6.16h-4.73v5.43h3.55v-3.45h-1.93v1.56h.39v-1h1.19v2.29h-2.73v-4.19h4.26v6.16h-4.73V142h3.55V138.5h-1.93v1.56h.39v-1h1.19v2.29h-2.73v-4.19h4.26v6.17h-4.73v5.43h3.55v-3.46h-1.93v1.56h.39v-1h1.19v2.29h-2.73V144h4.26v6.16h-4.73v5.43h3.55v-3.45h-1.93v1.56h.39v-1h1.19V155h-2.73v-4.19h4.26V157h-4.73v5.44h3.55V159h-1.93v1.56h.39v-1h1.19v2.29h-2.73v-4.2h4.26v6.17h-4.73v5.43h3.55v-3.46h-1.93v1.56h.39v-1h1.19v2.29h-2.73v-4.19h4.26v6.16h-4.73v5.44h3.55v-3.46h-1.93v1.56h.39v-1h1.19v2.29h-2.73V171.3h4.26v6.16h-4.73v5.44h3.55v-3.46h-1.93V181h.39v-1h1.19v2.29h-2.73v-4.19h4.26v6.16h-4.73v5.43h3.55v-3.45h-1.93v1.56h.39v-1h1.19v2.29h-2.73V185h4.26v6.16h-4.73v5.44h3.55v-3.46h-1.93v1.56h.39v-1h1.19V196h-2.73v-4.19h4.26v6.17h-4.73v5.43h3.55v-3.46h-1.93v1.56h.39v-1h1.19v2.29h-2.73V198.6h4.26v6.16h-4.73v5.44h3.55v-3.46h-1.93v1.56h.39v-1h1.19v2.29h-2.73v-4.19h4.26v6.16h-4.73V217h3.55v-3.46h-1.93v1.56h.39v-1h1.19v2.29h-2.73v-4.19h4.26v6.16h-4.73v5.43h3.55v-3.46h-1.93v1.56h.39v-1h1.19v2.29h-2.73v-4.19h4.26v6.16h-4.73v5.44h3.55v-3.46h-1.93v1.56h.39v-1h1.19v2.29h-2.73v-4.19h4.26v6.16h-4.73v5.44h3.55V234h-1.93v1.56h.39v-1h1.19v2.29h-2.73v-4.19h4.26v6.16h-4.73v5.43h3.55v-3.45h-1.93v1.56h.39v-1h1.19v2.29h-2.73v-4.19h4.26v6.16h-4.73v5.44h3.55v-3.46h-1.93v1.56h.39v-1h1.19v2.28h-2.73v-4.19h4.26v6.17h-4.73V258h3.55V254.5h-1.93v1.56h.39v-1h1.19v2.29h-2.73v-4.19h4.26v6.16h-4.73v5.44h3.55v-3.46h-1.93v1.56h.39v-1h1.19v2.29h-2.73V260h4.26v6.16h-4.73v5.44h3.55v-3.46h-1.93v1.56h.39v-1h1.19V271h-2.73v-4.19h4.26V273h-4.73v5.43h3.55V275h-1.93v1.55h.39v-1h1.19v2.29h-2.73v-4.19h4.26v6.16h-4.73v5.44h3.55V281.8h-1.93v1.56h.39v-1h1.19v2.29h-2.73v-4.19h4.26v6.16h-4.73v5.44h3.55v-3.46h-1.93v1.56h.39v-1h1.19v2.29h-2.73v-4.19h4.26v6.16h-4.73v5.43h3.55v-3.45h-1.93V297h.39v-1h1.19v2.29h-2.73v-4.19h4.26v6.16h-4.73v5.44h3.55v-3.46h-1.93v1.56h.39v-1h1.19v2.28h-2.73V301h4.26v6.17h-4.73v5.43h3.55v-3.46h-1.93v1.56h.39v-1h1.19V312h-2.73v-4.19h4.26v6.16h-4.73v5.44h3.55v-3.46h-1.93v1.56h.39v-1h1.19v2.29h-2.73V314.6h4.26v6.16h-4.73v5.44h3.55v-3.46h-1.93v1.56h.39v-1h1.19v2.29h-2.73v-4.2h4.26v6.17h-4.73V333h3.55v-3.45h-1.93v1.55h.39v-1h1.19v2.29h-2.73v-4.19h4.26v6.16h-4.73v5.44h3.55v-3.46h-1.93V338h.39v-1h1.19v2.29h-2.73v-4.19h4.26v6.16h-4.73v5.44h3.55v-3.46h-1.93v1.56h.39v-1h1.19v2.29h-2.73V341.9h4.26v6.16h-4.73v5.43h3.55V350h-1.93v1.56h.39v-1h1.19v2.29h-2.73v-4.19h4.26v6.16h-4.73v5.44h3.55v-3.46h-1.93v1.56h.39v-1h1.19v2.28h-2.73v-4.19h4.26v6.17h-4.73v5.43h3.55v-3.46h-1.93v1.56h.39v-1h1.19v2.29h-2.73v-4.19h4.26v6.16h-4.73V374h3.55v-3.46h-1.93v1.56h.39v-1h1.19v2.29h-2.73v-4.19h4.26v6.16h-4.73v5.44h3.55v-3.46h-1.93v1.56h.39v-1h1.19v2.29h-2.73V376h4.26v6.16h-4.73v5.43h3.55v-3.45h-1.93v1.55h.39v-1h1.19V387h-2.73v-4.19h4.26V389h-4.73v5.44h3.55V391h-1.93v1.56h.39v-1h1.19v2.29h-2.73v-4.19h4.26v6.16h-4.73v5.44h3.55V397.8h-1.93v1.56h.39v-1h1.19v2.29h-2.73v-4.19h4.26v6.16h-4.73v5.43h3.55v-3.45h-1.93v1.56h.39v-1h1.19v2.29h-2.73v-4.19h4.26v11Z"></path>
  </g>
</svg>